<?xml version="1.0" encoding="utf-8"?>
<!-- Generator: Adobe Illustrator 20.0.0, SVG Export Plug-In . SVG Version: 6.00 Build 0)  -->
<svg version="1.1" id="Layer_1" xmlns="http://www.w3.org/2000/svg" xmlns:xlink="http://www.w3.org/1999/xlink" x="0px" y="0px"
	 viewBox="0 0 154.6 279.1" style="enable-background:new 0 0 154.6 279.1;" xml:space="preserve">
<style type="text/css">
	.st0{fill:#F7F9F3;}
	.st1{fill:#E99A23;}
	.st2{fill:#4F5146;}
</style>
<g id="OIJZ8p_1_">
	<g>
		<g>
			<path class="st0" d="M93.7,181.8c-14.8-3.9-30-9.8-47.9-18.8c-6.9-3.5-15.7-8.5-21.7-17c-3.3-4.6-6.2-9.4-9.1-14.3
				c-4.7-7.9-7.2-15.6-7.6-22.8c-0.8-15.6-1-32.1,6.1-47.9C23,39.8,36.8,26.6,55.9,20.5c7.3-2.3,14.5-3.5,21.6-3.5
				c12.5,0,24.8,3.7,36.4,10.9c12.2,7.5,18.6,19.2,23.8,30.7c4,8.9,5.6,19.1,4.8,32l0,0.2l-1.3,10.9c0,0.3-0.1,0.6-0.2,1
				c-0.4,1.9-0.7,3.8-1,5.7c-0.6,3.4-1.2,6.9-2.1,10.3c-3.3,12.3-9.2,23.2-17,35.8c-5.4,8.7-12,16.7-18.4,24.4l-0.8,1l-7.2,2.4
				L93.7,181.8z"/>
			<path class="st1" d="M77.5,20c12,0,23.6,3.5,34.8,10.4c11.4,7,17.5,17.9,22.7,29.4c4.3,9.6,5.1,20.1,4.5,30.6l-1.3,10.9
				c0,0.2-0.1,0.5-0.1,0.7c-1.1,5.2-1.7,10.6-3.1,15.8c-3.4,12.6-9.8,24-16.7,35c-5.4,8.7-11.9,16.5-18.4,24.4
				c-1.8,0.6-3.7,1.2-5.5,1.8c-16.5-4.3-32.2-11-47.3-18.6c-7.8-3.9-15.3-8.7-20.7-16.1c-3.3-4.5-6.1-9.3-8.9-14.1
				c-3.9-6.7-6.8-13.9-7.2-21.4c-0.8-15.8-0.9-31.5,5.8-46.5c8.3-18.6,21-32.7,40.5-38.9C63.8,21.1,70.7,20,77.5,20 M77.5,14v6V14
				c-7.4,0-15,1.2-22.5,3.6C35.1,24,20.6,37.8,10.7,59.8c-7.4,16.5-7.2,33.4-6.4,49.3c0.4,7.7,3.1,15.8,8,24.2
				c2.9,4.9,5.8,9.8,9.2,14.5c6.5,9,15.6,14.3,22.8,17.9c18.1,9.1,33.5,15.1,48.5,19l1.7,0.4l1.7-0.6l2.7-0.9l2.7-0.9l1.6-0.5
				l1.1-1.3l0.3-0.4c6.4-7.8,13.1-15.8,18.6-24.7c7.9-12.8,13.9-23.9,17.4-36.6c1-3.6,1.6-7.1,2.2-10.6c0.3-1.9,0.6-3.8,1-5.6
				c0.1-0.4,0.1-0.8,0.2-1.2l1.3-10.9l0-0.2l0-0.2c0.8-13.2-0.9-24.1-5.1-33.4c-5.4-11.9-12.1-24-25-32C103.4,17.8,90.6,14,77.5,14
				L77.5,14z"/>
		</g>
		<path class="st2" d="M85.6,157.3c-2.6-1.9,0.1-4.2-0.4-6.3c-2.8,0.4-3.6,5.6-6.9,3.5c-4.2-2.6-2-7.5-2.8-12.3
			c-1.9,4.3-3.4,7.7-5,11.2c-0.4,0.9-0.9,1.9-2.1,1.5c-0.8-0.3-1.2-1.2-1.1-2.1c0.7-6.3,3.7-11.9,6.7-17.2c1.5-2.6,3.2,0.2,3.9,2.1
			c1.6,4.2,0,8.6,0.9,13.2c4.2-1.9,5.3-6.1,7.5-9.3c1.1-1.6,1.8-5.2,3.8-0.6c0.9,1.9,2.6,0.9,4,1c4.1,0.4,8.3,0.6,12,2.9
			c0.9,0.6,2,1.6,1.1,2.8c-0.5,0.7-1.9,1.2-2.7,0.4c-4.6-4.9-10.8-2.4-16.4-4.4c2.1,4.8,2.8,10,9,10.4c-2.3-0.3-4.6-0.4-6.8-0.8
			c-3-0.6-4,0.6-3.5,3.5C86.4,156.9,86,157.1,85.6,157.3z"/>
		<path class="st2" d="M56.7,151.3c-3.9-1.3-7.3-6.3-6.3-9.4c1.3-4.2,8.9-8.6,12.8-7.5c3.6,1,5.8,7.2,4.1,11.9
			C66,150.1,60.7,152.6,56.7,151.3z M54.6,142.7c-1,3-0.1,6.3,1.9,7c2.6,0.9,7.8-2.6,8.7-6c0.7-2.8,0.5-5.4-2.4-6.8
			C60.1,135.8,55.8,138.9,54.6,142.7z"/>
		<path class="st2" d="M98.9,178.5c0.5,0.9,1.9,2.5,0.6,2.7c-3.6,0.6-2.1,3.8-3.4,5.5c-1.5-0.3-1.6-1.6-2.1-2.7
			c0.2-1.7,0.3-3.4,0.5-5.1C95.9,178.8,97.4,178.7,98.9,178.5z"/>
		<path class="st2" d="M86.8,156.8c2,1.6,4.2,2.1,6.8,1.9c0.9-0.1,3.1-0.1,2.8,1.8c-0.2,1.9-2.2,1.4-3.2,1.1
			c-2.8-0.8-6.5-0.3-7.6-4.2C86,157.1,86.4,156.9,86.8,156.8z"/>
		<path class="st0" d="M94,184c0.4,1.1,0.5,2.4,2.1,2.7c-0.6,2-1.2,4-1.8,6c-0.4,0.2-0.8,0.4-1.2,0.7c-1.6-1.3-5-0.9-4.5-4
			C89.1,186.5,91,184.6,94,184z"/>
		<path class="st2" d="M111.3,196.9c-6.6-0.5-8.5-2.5-6-7.2c1.1-2.1,0.9-4.4,0.1-6.7C109.9,186.6,103.8,193.4,111.3,196.9z"/>
		<path class="st2" d="M95.3,196.2c0.4-2.7,0.7-5.4,1.1-8.1c3.5,19.3,2.1,49.9,2,82.2C96.1,247,98.4,212.5,95.3,196.2z"/>
		<path class="st0" d="M54.6,142.7c1.2-3.8,5.5-7,8.1-5.7c2.9,1.4,3.2,4,2.4,6.8c-0.9,3.4-6.1,6.9-8.7,6
			C54.5,149.1,53.6,145.8,54.6,142.7z"/>
	</g>
</g>
</svg>
