<?xml version="1.0" encoding="utf-8"?>
<!-- Generator: Adobe Illustrator 20.0.0, SVG Export Plug-In . SVG Version: 6.00 Build 0)  -->
<svg version="1.1" id="Layer_1" xmlns="http://www.w3.org/2000/svg" xmlns:xlink="http://www.w3.org/1999/xlink" x="0px" y="0px"
	 viewBox="0 0 154.6 279.1" style="enable-background:new 0 0 154.6 279.1;" xml:space="preserve">
<style type="text/css">
	.st0{fill:#F7F9F3;}
	.st1{fill:#E99A23;}
	.st2{fill:#4F5146;}
</style>
<g>
	<g>
		<path class="st0" d="M43.3,175l-0.8-1.1c-5.8-8.2-11.7-16.6-16.4-25.7c-6.8-13.1-11.8-24.5-14.2-37c-0.7-3.5-1-7-1.3-10.4
			c-0.2-1.9-0.4-3.8-0.6-5.7c0-0.3-0.1-0.6-0.1-1L9.5,83l0-0.1C9.8,70,12.1,60,16.8,51.4c6.1-11.1,13.4-22.2,26.1-28.8
			c10.5-5.4,21.4-8.2,32.2-8.2c8.7,0,17.5,1.8,26.3,5.3c18.5,7.5,31.3,21.8,39.1,43.7c5.9,16.3,4.4,32.8,2.4,48.2
			c-0.9,7.1-4.1,14.6-9.4,22.1c-3.3,4.6-6.5,9.2-10.2,13.5c-6.7,8-15.8,12.4-23,15.3c-18.5,7.6-34.2,12.3-49.2,15.1l-0.9,0.2
			L43.3,175z"/>
		<path class="st1" d="M75.1,17.4c8.4,0,16.7,1.7,25.1,5.1c19,7.7,30.6,22.8,37.4,41.9c5.5,15.5,4.3,31.2,2.2,46.8
			c-1,7.5-4.4,14.5-8.8,20.8c-3.2,4.6-6.4,9.1-10,13.3c-5.9,7-13.8,11.1-21.8,14.4c-15.7,6.4-31.8,11.9-48.6,14.9
			c-1.7-0.7-3.6-1.5-5.3-2.2c-5.9-8.3-11.8-16.7-16.5-25.8c-6-11.5-11.5-23.3-13.9-36.2c-1-5.2-1.2-10.6-1.9-16c0-0.2,0-0.5-0.1-0.7
			l-0.4-11c0.2-10.5,1.8-20.9,6.9-30.1c6-11,13-21.4,24.9-27.5C54.4,20.1,64.7,17.4,75.1,17.4 M75.1,11.4L75.1,11.4
			c-11.3,0-22.6,2.9-33.6,8.5c-13.4,6.9-21.1,18.5-27.4,30c-4.9,8.9-7.4,19.6-7.6,32.9l0,0.2l0,0.2l0.4,11c0,0.4,0,0.8,0.1,1.2
			c0.2,1.8,0.4,3.7,0.6,5.6c0.3,3.5,0.7,7.1,1.4,10.7c2.5,12.9,7.6,24.5,14.5,37.8c4.8,9.3,10.8,17.8,16.6,26.1l0.3,0.4l1,1.4
			l1.6,0.7l3.5,1.5l1.8,0.8l1.6,0.7l1.7-0.3c15.3-2.7,31.1-7.6,49.8-15.2c7.5-3.1,17-7.7,24.1-16.1c3.8-4.5,7-9.1,10.3-13.8
			c5.6-8,8.9-15.8,9.9-23.5c2-15.8,3.5-32.7-2.5-49.6c-8.1-22.7-21.5-37.6-40.8-45.5C93.4,13.3,84.2,11.4,75.1,11.4L75.1,11.4z"/>
	</g>
	<path class="st2" d="M46.3,174c-0.6,0.9-2,2.4-0.8,2.7c3.5,0.9,1.8,4,2.9,5.7c1.5-0.1,1.8-1.4,2.3-2.5c0-1.7,0-3.4-0.1-5.1
		C49.2,174.5,47.7,174.3,46.3,174z"/>
	<path class="st0" d="M50.7,179.9c-0.5,1.1-0.7,2.4-2.3,2.5c0.4,2,0.9,4.1,1.3,6.1c0.4,0.2,0.8,0.5,1.2,0.7c1.7-1.1,5-0.6,4.8-3.7
		C55.4,182.8,53.7,180.7,50.7,179.9z"/>
	<path class="st2" d="M32.5,191.4c6.6,0,8.7-1.8,6.5-6.7c-1-2.2-0.5-4.5,0.4-6.7C34.6,181.3,40.2,188.5,32.5,191.4z"/>
	<path class="st2" d="M48.4,191.9c-0.1-2.7-0.3-5.4-0.5-8.1c-5,19-6,49.6-8.3,81.8C43.8,242.5,44.2,207.9,48.4,191.9z"/>
	<g id="_x39_dQ4SB_1_">
		<g>
			<path class="st2" d="M77.2,157.4c-2.3-5.1-4.5-10.3-6.8-15.4c0.6-0.3,1.2-0.6,1.8-0.9c1.6,3.2,3.2,6.4,5.3,10.7
				c1.2-5.7,2.2-10.3,3.3-15.2c5.8,1.6,4.3,7.3,7.8,11.7c1.7-5.7,3.1-10.4,4.6-15c0.4-0.1,0.7-0.2,1.1-0.2c0.3,1.4,1,2.9,0.7,4.2
				c-0.9,3.9-2,7.7-3.5,11.4c-0.5,1.3-2,2.7-3.3,3c-0.7,0.2-2.2-1.6-2.9-2.7c-0.9-1.4-1.3-3-2.4-5.7c-1.3,5.2-2.4,9.4-3.4,13.6
				C78.6,157,77.9,157.2,77.2,157.4z"/>
			<path class="st2" d="M103.4,151.2c-4.1,0.8-9.1-1.5-8.6-4.4c0.9-4.8,2.4-9.9,5.3-13.6c1.7-2.2,10.3,4.4,11.1,8.5
				C111.9,145.3,107.8,150.3,103.4,151.2z M104.9,135.4c-0.7,0-1.4,0.1-2.2,0.1c-1.9,3.2-4.3,6.2-5.6,9.6c-1.1,3.2,1.1,5.7,4.3,4.2
				c2.7-1.2,5.9-3.7,6.7-6.3C108.9,141.1,106.2,138,104.9,135.4z"/>
			<path class="st2" d="M77.4,136.5c-3.8,1.6-7.7,3.2-11.6,4.9c1.6,5.6,3,10.8,4.4,15.9c-0.5,0.2-1,0.4-1.5,0.5
				c-1.7-4.9-3.5-9.7-5.4-14.9c-3.3,1.1-6.2,2.1-9.2,3.1c7.1-4.9,14.3-9.5,22.6-11C77,135.5,77.2,136,77.4,136.5z"/>
		</g>
	</g>
</g>
</svg>
