<?xml version="1.0" encoding="utf-8"?>
<!-- Generator: Adobe Illustrator 20.0.0, SVG Export Plug-In . SVG Version: 6.00 Build 0)  -->
<svg version="1.1" id="Layer_1" xmlns="http://www.w3.org/2000/svg" xmlns:xlink="http://www.w3.org/1999/xlink" x="0px" y="0px"
	 viewBox="0 0 364.3 519.7" style="enable-background:new 0 0 364.3 519.7;" xml:space="preserve">
<style type="text/css">
	.st0{fill:#B81704;}
	.st1{fill:#FFFFFF;}
</style>
<g id="JFPOYO.tif">
	<g>
		<g>
			<path d="M192.3-37.2c28.7-0.6,57.3-1.2,86-1.8c0,1.3,0.1,2.6,0.1,3.8c0,1.4-12.9,83.6-13.1,85c-0.3,2.7-0.7,5.4-1,8.1
				c-0.6,5.3-1.3,10.5-1.8,15.8c-1.1,10.7-2.2,21.3-3.3,32c-2.2,21.4-4.4,42.8-6.5,64.2c-0.5,5.3-1.1,10.6-1.6,15.9
				c-0.3,2.7-0.5,5.3-0.8,8c-0.2,1.9-0.5,3.8-1.4,5.5c-0.9,1.5-2.2,2.7-3.6,3.7c-2.3,1.4-4.6,2.8-6.8,4.2c-4.5,2.8-8.9,5.5-13.4,8.3
				c-9.1,5.6-18.1,11.2-27.2,16.7c-3.2,1.9-5.9,4.3-7.2,7.9c-0.7,2.1-1,4.4-1.3,6.6c-0.4,2.6-0.9,5.2-1.3,7.9
				c-1.8,10.6-3.6,21.2-5.4,31.8c-0.9,5.2-1.8,10.5-2.8,15.7c-0.5,2.6-0.9,5.2-1.4,7.8c-0.3,1.7-0.7,3.5-0.3,5.2
				c0.9,3.3,5,3.6,7.8,4.1c5.2,1,10.4,2,15.6,3c10.5,2,21,4.1,31.5,6.2c2.6,0.5,5.2,1,7.8,1.5c2.1,0.4,4.3,0.6,6.2,1.5
				c1.5,0.7,2.6,1.9,3.4,3.4c1.1,2.3,1.8,4.8,2.7,7.2c3.6,10,7.3,20,11,30c0.9,2.5,1.9,5,2.8,7.4c0.9,2.3,1.9,4.6,2.6,6.9
				c0.4,1.5,0.4,3.1-0.5,4.4c-1,1.6-2.7,2.6-4.3,3.6c-8.3,5.3-16.1,11.4-24.6,16.3c-3.5,2.1-7.1,4-10.3,6.6
				c-2.6,2.2-4.9,4.8-6.7,7.7c-1.8,3-3,6.2-3.7,9.6c-0.7,3.6-0.4,7.3-1.3,10.9c-0.7,2.8-2.3,5.3-4.9,6.7c-1.4,0.7-3,1.1-4.5,1.3
				c-1,0.1-1.9,0.1-2.9,0.4c-0.8,0.3-1.6,0.4-2.4,0.3c-1.4-0.2-2.1-1.4-2.3-2.7c-0.4-2.4-0.2-5-0.3-7.4c-0.1-5.3-0.2-10.6-0.3-16
				c-0.1-5.1-0.2-10.2-0.3-15.3c-2.9,9.7-4.9,19.6-7.2,29.4c-0.7,2.9-1.3,5.8-1.8,8.7c-0.3,1.5-0.6,3.2-1.4,4.6
				c-1.6,2.9-6,3.2-8.9,3.7c-1.6,0.3-3.3,0.6-4.9,0.9c-1.5,0.3-3.2,1.3-4.8,0.8c-1.1-0.3-1.6-1.3-1.8-2.3c-0.4-2-0.2-4.1-0.2-6.1
				c0-5.8-0.1-11.5-0.2-17.3c0-2.9-0.1-5.8-0.1-8.7c0-1.5,0-2.9-0.1-4.4c0-1.5-0.3-2.8-0.6-4.3c-3.2,3.3-4.4,8.2-6,12.4
				c-1.8,4.8-3.6,9.5-5.5,14.3c-1.8,4.6-3.6,9.2-5.5,13.8c-0.9,2.1-1.6,4.1-3.3,5.7c-1.4,1.4-3.2,2.4-5,3.1c-2.2,0.8-4.5,1.5-6.8,2
				c-2.4,0.6-4.9,1.3-7.3,1.7c-0.5,0.1-0.9,0.1-1.4,0.1c-0.2,0-0.9,0.1-1,0c0,0-0.1-0.8-0.1-0.7c-0.1-1.2-0.4-2.5-0.3-3.7
				c0.2-2.4,0.9-5,1.4-7.4c2-10.2,4-20.3,6-30.5c2-10,4-20,6.1-30.1c0.7-3.3,2.4-7.7,0.2-10.7c-1-1.4-2.6-2.2-4.1-3
				c-2.2-1.2-4.5-2.4-6.7-3.6c-4.3-2.4-8.6-5-12.9-7.5c-2.1-1.2-4.2-2.5-6.4-3.7c-1.2-0.7-2.6-1.5-4-1.4c-1.2,0-2.1,0.8-2.8,1.7
				c-1.3,1.6-2.2,3.7-3.2,5.5c-2.4,4.5-4.8,8.9-7.2,13.4c-4.8,9-9.6,18-14.2,27.1c-1.6,3.1-3.1,6.4-6.1,8.4
				c-1.4,0.9-3.1,1.4-4.8,1.6c-2.5,0.2-5,0.4-7.5,0.6c-2.5,0.2-5,0.5-7.4,0.7c0-0.4-0.1-0.8,0.1-1.1c0.1-0.3,0.4-0.6,0.6-0.9
				c0.4-0.9,0.6-2,0.8-3c0.5-1.9,1-3.7,1.5-5.6c1-3.7,2-7.4,3-11.2c2-7.5,4-15,6-22.5c4-15,7.9-30,11.9-45.1c1-3.8,2-7.6,3-11.4
				c0.6-2.2,1.2-4.7,3.4-5.9c1.1-0.6,2.3-0.7,3.5-0.8c1.9,0,3.7-0.1,5.6-0.3c1.9-0.2,3.7-0.4,5.6-0.5c1.1-0.1,2.2-0.3,3.1-0.8
				c2.1-1.2,2-3.7,1.8-5.8c-0.4-3.8-0.7-7.6-1-11.4c-0.6-7.7-1.2-15.4-1.9-23.1c-1.4-15.5-2.8-31.1-4.2-46.6
				c-1.4-15.5-2.8-31.1-4.2-46.6c-0.4-3.9-0.7-7.8-1.1-11.7c-0.3-3.7-1-7.6-1-11.4c0-2.7,1.1-5,3-6.8c2.8-2.6,5.8-4.9,8.7-7.3
				c11.8-9.8,23.6-19.7,35.3-29.7c2.6-2.2,5-4.3,6.4-7.6c0.7-1.6,1-3.3,1.3-5c0.4-1.9,0.8-3.9,1.2-5.8c1.6-7.5,3-15.1,4.5-22.6
				c1.5-7.6,3.1-15.1,4.6-22.7c0.4-1.9,0.8-3.8,1.1-5.7c0.2-0.9,13.1-82.7,13.3-83.6c0-0.2,0-0.6,0.2-0.8c0.2-0.3,0.1-0.1,0.4-0.2
				c0.4-0.1,1,0,1.5,0c3.5,0,7-0.2,10.6-0.5C184.7-36.7,188.5-36.9,192.3-37.2C221-37.8,186.7-36.8,192.3-37.2z M231,390.4
				C231.5,390.8,232.4,384.3,231,390.4c0.3,0.2,0.6,0.5,0.9,0.7c0.4,0.3,0.4,0.3,0.8-0.1c0.6-0.5,1.2-1,1.8-1.4
				c1.1-0.9,2.3-1.7,3.4-2.6c1.8-1.4,4-3.4,3.8-5.9c-0.2-2.7-2.3-5.1-3.6-7.3c-0.4-0.6-0.7-1.2-1.1-1.8c-0.1-0.1-0.2-0.4-0.3-0.5
				c-0.3-0.3,0.2-0.2-0.5-0.1c-0.3,0.1-1.3,0.3-1.4,0.5c-0.2,0.2-0.2,1.1-0.3,1.4c-0.1,0.5-0.2,0.9-0.3,1.4c-0.2,1-0.4,1.9-0.6,2.9"
				/>
		</g>
	</g>
</g>
<g>
	<g>
		<path class="st0" d="M120.9,454.2H65c-2.2,0-4-1.8-4-4v-12.3c0-2.2,1.8-4,4-4h55.9c2.2,0,4,1.8,4,4v12.3
			C124.8,452.4,123.1,454.2,120.9,454.2z"/>
	</g>
	<g>
		<path class="st1" d="M75.4,445.1c0,0.4,0.1,0.7,0.3,1c0.3,0.5,0.9,0.7,1.7,0.7c0.4,0,0.7-0.1,1-0.2c0.6-0.2,0.8-0.6,0.8-1.1
			c0-0.4-0.1-0.7-0.4-0.8c-0.2-0.2-0.6-0.3-1.1-0.4l-1-0.2c-0.6-0.1-1.1-0.3-1.3-0.5c-0.4-0.3-0.7-0.8-0.7-1.4
			c0-0.7,0.2-1.2,0.7-1.6c0.4-0.4,1.1-0.6,1.9-0.6c0.7,0,1.4,0.2,1.9,0.6c0.5,0.4,0.8,1,0.8,1.8H79c0-0.4-0.1-0.7-0.3-0.9
			c-0.3-0.4-0.8-0.6-1.5-0.6c-0.6,0-1,0.1-1.2,0.4c-0.2,0.2-0.4,0.5-0.4,0.9c0,0.4,0.1,0.6,0.4,0.8c0.2,0.1,0.6,0.2,1.3,0.4l1,0.2
			c0.5,0.1,0.8,0.3,1.1,0.5c0.4,0.3,0.7,0.8,0.7,1.5c0,0.8-0.3,1.4-0.9,1.7s-1.2,0.5-2,0.5c-0.9,0-1.6-0.2-2.1-0.7
			c-0.5-0.5-0.7-1.1-0.7-1.9H75.4z"/>
		<path class="st1" d="M86.8,440.2v0.9h-2.4v6.4h-1v-6.4h-2.4v-0.9H86.8z"/>
		<path class="st1" d="M89.1,440.2h1.1l2.6,7.3h-1.1l-0.8-2.2h-2.8l-0.8,2.2h-1L89.1,440.2z M90.7,444.5l-1.1-3.2l-1.2,3.2H90.7z"/>
		<path class="st1" d="M93.8,440.2h3.3c0.5,0,1,0.1,1.3,0.2c0.7,0.3,1,0.9,1,1.7c0,0.4-0.1,0.8-0.3,1.1c-0.2,0.3-0.4,0.5-0.8,0.7
			c0.3,0.1,0.5,0.3,0.6,0.5c0.1,0.2,0.2,0.5,0.2,0.9l0,1c0,0.3,0,0.5,0.1,0.6c0.1,0.2,0.2,0.4,0.3,0.4v0.2h-1.2
			c0-0.1-0.1-0.1-0.1-0.2c0-0.1,0-0.3,0-0.6l-0.1-1.2c0-0.5-0.2-0.8-0.5-1c-0.2-0.1-0.5-0.1-0.9-0.1h-2.2v3.1h-1V440.2z M97,443.5
			c0.4,0,0.8-0.1,1.1-0.3c0.3-0.2,0.4-0.5,0.4-1c0-0.5-0.2-0.9-0.5-1.1c-0.2-0.1-0.5-0.1-0.8-0.1h-2.3v2.5H97z"/>
		<path class="st1" d="M106.1,440.2v0.9h-2.4v6.4h-1v-6.4h-2.4v-0.9H106.1z"/>
		<path class="st1" d="M107.6,440.7c0.4-0.4,1-0.7,1.7-0.7c0.7,0,1.2,0.2,1.6,0.6c0.4,0.4,0.6,0.8,0.6,1.4c0,0.3-0.1,0.6-0.2,0.9
			c-0.1,0.2-0.4,0.5-0.9,1c-0.3,0.3-0.5,0.6-0.6,0.8c-0.1,0.2-0.1,0.5-0.1,0.9h-0.9c0-0.5,0.1-0.9,0.2-1.1c0.1-0.3,0.4-0.6,0.7-1
			l0.4-0.4c0.1-0.1,0.2-0.2,0.3-0.4c0.1-0.2,0.2-0.4,0.2-0.7c0-0.3-0.1-0.6-0.3-0.8c-0.2-0.2-0.5-0.4-1-0.4c-0.6,0-1,0.2-1.2,0.6
			c-0.1,0.2-0.2,0.6-0.2,1H107C107,441.8,107.2,441.2,107.6,440.7z M108.7,446.4h1v1h-1V446.4z"/>
	</g>
</g>
<g>
	<path class="st0" d="M22.9,87.5c0,0,0.1,15.8-21.7,12.2l-0.4-28C22.7,68.1,22.9,87.5,22.9,87.5z M6.5,95.1
		c10.9-0.6,10.9-6.9,10.9-6.9S17.1,73.4,5.9,76.6L6.5,95.1z"/>
	<path class="st0" d="M25.5,71.2l24.1,0.4l0.8,4.4h-19v9l15.8,0.2l-0.2,4l-14.8,0.6V95l18,0.2l-0.4,5H25.5V71.2z"/>
	<path class="st0" d="M73.8,80.2c-2.7-4.7-7.8-4.8-7.8-4.8c-5.1-0.2-8.9-1.1-8.7,2.6c0.2,3.7,9.6,4.7,15.1,6c5.5,1.3,6,6.7,6,8.5
		s0,7.7-12.5,7.7c0,0-12.5,0-15.1-10.2l5-0.2c2.6,6.4,9.3,6.4,9.3,6.4c2.4,0,7.6,0,7.6-4c0-6-6.2-4.9-12.9-6.8
		c-6.7-1.9-8.4-4.6-9.2-7.8c-0.2-1,3.4-6.8,15.3-6.3c0,0,13.6,0.5,12.8,8.9H73.8z"/>
	<path class="st0" d="M81.2,71.4l5.8-0.2l0.4,28.9l-5.8-0.4L81.2,71.4z"/>
	<path class="st0" d="M113.7,80.4c-1.2-4.5-9.3-4.1-9.3-4.1c-8.1,0.4-10.1,5.5-10.1,8.7c0,3.2,2.4,10.3,8.5,10.3c0,0,9.3,0,10.9-3
		l-4,0.2v-2.6l8.1,0.2l-1.8,9.7l-1.6-0.2l0.2-4.6c-2,4.8-11.1,5.2-11.1,5.2c-8.5,0.4-14.2-5-14-15.4c0.2-10.3,7.9-13.8,14.4-13.5
		c0,0,10.1,0.4,13.1,6.1L113.7,80.4z"/>
	<path class="st0" d="M119.5,71.7l4.3-0.2l12.8,24.4l-0.2-24.6l3.3,0.2l1.2,28.5l-6.9-0.2l-10.4-18.7l0.6,18.9l-4.9,0.2L119.5,71.7z
		"/>
</g>
<g>
	<path class="st0" d="M219,257.1c0,0,0.1,11.9-16.4,9.2l-0.3-21.1C218.8,242.5,219,257.1,219,257.1z M206.6,262.9
		c8.3-0.4,8.2-5.2,8.2-5.2s-0.2-11.2-8.6-8.8L206.6,262.9z"/>
	<path class="st0" d="M221,244.9l18.2,0.3l0.6,3.3h-14.3v6.8l11.9,0.2l-0.2,3l-11.2,0.4v3.9l13.6,0.2l-0.3,3.8H221V244.9z"/>
	<path class="st0" d="M257.4,251.6c-2-3.5-5.9-3.6-5.9-3.6c-3.8-0.2-6.7-0.9-6.6,2c0.2,2.8,7.2,3.5,11.4,4.5c4.1,1,4.5,5.1,4.5,6.4
		s0,5.8-9.4,5.8c0,0-9.4,0-11.4-7.7l3.8-0.2c2,4.8,7,4.8,7,4.8c1.8,0,5.8,0,5.8-3c0-4.5-4.7-3.7-9.8-5.1c-5.1-1.4-6.3-3.5-6.9-5.9
		c-0.2-0.8,2.6-5.1,11.5-4.8c0,0,10.3,0.4,9.7,6.7H257.4z"/>
	<path class="st0" d="M263,245l4.4-0.2l0.3,21.8l-4.4-0.3L263,245z"/>
	<path class="st0" d="M287.5,251.7c-0.9-3.4-7-3.1-7-3.1c-6.1,0.3-7.6,4.1-7.6,6.6c0,2.4,1.8,7.8,6.4,7.8c0,0,7,0,8.2-2.3l-3,0.2v-2
		l6.1,0.2l-1.4,7.3l-1.2-0.2l0.2-3.5c-1.5,3.6-8.4,4-8.4,4c-6.4,0.3-10.7-3.8-10.5-11.6c0.2-7.8,6-10.4,10.8-10.2
		c0,0,7.6,0.3,9.9,4.6L287.5,251.7z"/>
	<path class="st0" d="M291.8,245.2l3.3-0.2l9.7,18.4l-0.2-18.6l2.5,0.2l0.9,21.5l-5.2-0.2l-7.9-14.1l0.4,14.3l-3.7,0.2L291.8,245.2z
		"/>
</g>
<g>
	<path class="st0" d="M213.1,288.8c-2.8-4.9-8.2-5.1-8.2-5.1c-5.4-0.2-9.5-1.2-9.3,2.8c0.2,4,10.1,4.9,16,6.3c5.8,1.4,6.3,7.2,6.3,9
		s0,8.2-13.2,8.2c0,0-13.3,0-16-10.8l5.3-0.2c2.8,6.8,9.8,6.8,9.8,6.8c2.6,0,8.1,0,8.1-4.2c0-6.3-6.6-5.2-13.7-7.2
		c-7.1-2-8.9-4.9-9.7-8.3c-0.2-1.1,3.6-7.2,16.2-6.7c0,0,14.5,0.5,13.6,9.5H213.1z"/>
	<path class="st0" d="M221.3,279.5L228,292l8.6-12.5l3.5,0.6l-10.7,16V310h-4.1l0.6-13.5l-8.8-17.2L221.3,279.5z"/>
	<path class="st0" d="M263.2,288.8c-2.8-4.9-8.2-5.1-8.2-5.1c-5.4-0.2-9.5-1.2-9.3,2.8c0.2,4,10.1,4.9,16,6.3c5.8,1.4,6.3,7.2,6.3,9
		s0,8.2-13.2,8.2c0,0-13.3,0-16-10.8l5.3-0.2c2.8,6.8,9.8,6.8,9.8,6.8c2.6,0,8.1,0,8.1-4.2c0-6.3-6.6-5.2-13.7-7.2
		c-7.1-2-8.9-4.9-9.7-8.3c-0.2-1.1,3.6-7.2,16.2-6.7c0,0,14.5,0.5,13.6,9.5H263.2z"/>
	<path class="st0" d="M300.8,279.3v4.7h-12.9L288,310h-4.5l-0.4-25.8h-15.7l-0.4-4.5L300.8,279.3z"/>
	<path class="st0" d="M302.2,279.3l25.6,0.4l0.9,4.7h-20.1v9.5l16.8,0.2l-0.2,4.2l-15.7,0.6v5.5l19.1,0.2l-0.4,5.3h-25.8V279.3z"/>
	<path class="st0" d="M329.6,279.3l4.2,0.2l11.6,24.2l10.5-23.4l3.4,0.2l1,29.5l-3.4-0.2l-1.7-18.5l-8,18.3h-4.4l-8.8-19.1l0.2,18.9
		l-4.9,0.2L329.6,279.3z"/>
</g>
<g>
	<path class="st0" d="M103.5,114.9l10.1,20.6l-3.1,0.3l-3.9-7.6l-7.1-0.8l-2.5,8.5h-3.2l5.9-20.5L103.5,114.9z M100.1,124.8l5.6,0.8
		l-3.6-7L100.1,124.8z"/>
</g>
</svg>
