<?xml version="1.0" encoding="utf-8"?>
<!-- Generator: Adobe Illustrator 20.0.0, SVG Export Plug-In . SVG Version: 6.00 Build 0)  -->
<svg version="1.1" id="Layer_1" xmlns="http://www.w3.org/2000/svg" xmlns:xlink="http://www.w3.org/1999/xlink" x="0px" y="0px"
	 viewBox="0 0 205 545" style="enable-background:new 0 0 205 545;" xml:space="preserve">
<style type="text/css">
	.st0{fill:#33180D;}
</style>
<g>
	<path class="st0" d="M104.5,249c8-3.5,11.5-16,11.5-16s-7-3.5-15.4-3.5S86.4,233,86.4,233c-1,14.5,12.9,19.6,17,20.7
		C101.5,253.1,98.5,251.6,104.5,249z"/>
	<path class="st0" d="M103.4,253.7c0.6,0.2,1.1,0.3,1.1,0.3S104.1,253.9,103.4,253.7z"/>
	<path class="st0" d="M97.7,114.4c0.8,0.4,1.8,0.6,3.1,0.6C100.9,115,99.6,114.8,97.7,114.4z"/>
	<path class="st0" d="M111.1,103c0.8,0.4,1.8,0.7,3.1,0.9C114.2,103.9,113,103.6,111.1,103z"/>
	<path class="st0" d="M97.7,114.4c0.4,0.1-0.3-0.4-1.9-1.3C96.3,113.6,96.9,114,97.7,114.4z"/>
	<path class="st0" d="M165.9,129.4c0.3-2.5-2.5-2.1-4.1-2.5c-18.3-4.2-36.4-3.4-54.3,1.8c-4.3,1.3-8.4,1.3-12.7,0
		c-10.8-3.4-22-5.4-33.4-5.4c-7,0-14,0.7-20.9,1.9c-4.6,0.8-7.2,6.4-3.7,9.2c3.2,2.5,3.1,5.5,4,8.5c1.3,4.5,2.2,9,3.6,13.5
		c0.9,2.9,2.6,5.4,5.4,6.9c14.2,7.7,33.4,2.3,41.4-11.7c1.8-3.2,3.3-6.5,4.3-10.1c0.7-2.6,1.9-5.3,5.1-5.4c3.6-0.1,4.5,2.8,5.5,5.5
		c0.2,0.6,0.3,1.3,0.5,1.9c5.1,17,15.3,24.2,33.1,23.3c2-0.1,3.9-0.6,5.9-0.8c6.4-0.7,10.3-4.3,12-10.3c1.4-5,2.6-10,3.9-15
		c0.5-1.7,0.5-3.3,2.7-4.4C167,135.2,165.6,131.8,165.9,129.4z M93.3,137.7c0,1.4-0.6,12.9-10,19.6c-15.5,11-30.7,3.7-33.7,1.3
		c-3-2.3-7.3-27.7-7.3-27.7c18.3-2.8,30.1-3,37.6-2c1.3-0.2,2.6,0,4.1,0.6c0.3,0.1,0.5,0.2,0.7,0.3C94,132.3,93.3,136.9,93.3,137.7z
		 M152,158.7c-3,2.3-18.2,9.7-33.7-1.3c-9.4-6.7-10-18.3-10-19.6c0-1.3-1.7-12.9,40.9-8.1c0.9-0.5,1.7-0.3,2.4,0.3
		c2.4,0.3,5,0.7,7.7,1.1C159.3,131,155,156.3,152,158.7z"/>
	<path class="st0" d="M203.3,95.9c-1.3,1.8-2.6,3.5-4.1,5.2c0.7-6.4,6.5-13.2,5-19.8c-10.6,9,1.9-13.2-1.4-20.7
		c-3.9,8.8-5.4,6.2-4.7-7.8c-1.4-7.6-3.9-14.8-7.5-21.7c2.2,16.8-2.9,12.5-11.4,6.8c1.5,5.8,1.6,11.5,0.3,17.3
		c-7.1-13.2-2.2-35.4-24.5-33.1c0.3,2.7,2.4,13.8-0.4,15.9c-7.8-17.6-22.8-31.3-31.1-8.3c-0.4-2.5-0.7-5.1-0.9-7.6
		c-5.5,0.1-9.6,2.4-12.5,6.9c0-5.3-8.1-18.5-14.3-18.6c-1.4,7.6-3,15.2-5,22.6c-1.9-5.2-3.7-10.4-5.3-15.7
		c-8.2,1.2-14.3,6.8-16.4,14.8C53.2,6.3,46.1,36.1,37.9,47.1c-1.1-5.8-2-11.6-2.7-17.4c-7.4-0.2-10.8,12-12.1,16.7
		c-0.7-5.4-0.8-10.9-0.5-16.4c-10.1,12-9,31.5-8.7,46.3c-2.5-2.5-3-5.2-1.6-8.2c-2.2,9.8-4.4,11.5-6.8,5.3
		c-8.5,18.8,1.2,41.5,5.8,58.6c-9.9-8,4.6,15.3,6,19.6c-2-1.5-3.9-3.1-5.7-4.8C10.7,157.8,26,171.2,29.2,182
		C39.2,167.5,2,78.1,46.5,109.8c-10.5-25.4,42.3-0.6,49.4,3.4c-5.4-6,13.5-10.6,15.2-10.1c-2.5-0.8-4.1-2.3-4.9-4.6
		c1.3-6.3,57.4,2.3,61.1,4.7c30.1,20.1-7.9,64,2.7,80.3c7.6-10.7,27.9-37.2,26.6-49.6c-15.6,8.7,13.4-25.2-0.2-14.4
		C197.9,111.8,206,104.6,203.3,95.9z"/>
	<path class="st0" d="M121.2,352c0.3-2.2-2.5-18.4-4.1-27.2c-3.5-18.8-9.6-37.5-4.5-57c0.5-1.8,0.5-3.6,0.8-5.4
		c0.6-3-0.1-4.3-3.5-3.9c-4.9,0.5-9.9,0.5-14.9,0.7c-7.4,0.2-8,0.9-5.7,7.8c4,12.1,6,24,2.4,36.9c-4.3,15.5-9.5,49.4-9.1,50.1
		L68.8,466.9c-0.6,5.3,0.5,10.6,3.1,15.2l26.4,47c1.1,1.9,3.8,1.9,4.8,0l24.5-45.6c2.3-4.3,3.3-9.1,2.9-14L121.2,352z"/>
</g>
</svg>
