<?xml version="1.0" encoding="utf-8"?>
<!-- Generator: Adobe Illustrator 20.0.0, SVG Export Plug-In . SVG Version: 6.00 Build 0)  -->
<svg version="1.1" id="Layer_1" xmlns="http://www.w3.org/2000/svg" xmlns:xlink="http://www.w3.org/1999/xlink" x="0px" y="0px"
	 viewBox="0 0 626.9 358.6" style="enable-background:new 0 0 626.9 358.6;" xml:space="preserve">
<style type="text/css">
	.st0{fill:#101310;}
	.st1{fill:#EEDE3D;}
</style>
<g>
	<path class="st0" d="M302,137.5c0.3,0.2,0.6,0.4,0.9,0.6c0.4,0.3,0.8,0.7,1.3,1c0,0,0,0,0,0c0.6,1.2,1.7,1.9,3,2c0,0,0,0,0,0
		c4.5,3.7,10,4,15.5,4c11.8,0,23.5-0.2,35.3-0.4c2.8,0,5.6,0.6,8.3-0.6c0.7-0.1,1.3-0.1,2-0.2c4.5,0,7.9-2.6,10.4-5.8
		c5.6-7.1,10.5-14.7,14.8-22.7c0,0-0.1-0.1-0.1-0.1c0.3-0.4,0.7-0.8,1-1.2l0.2-0.3c1.9-1.9,3.6-4,4.9-6.5c0,0-0.1,0-0.1,0
		c0.4-0.4,0.7-0.7,1.1-1.1c0,0,0,0.1,0,0.1c2-1.4,4-2.8,6-4.2c0.3,0.1,0.6,0,0.8-0.2c3.7-1.7,7.4-2.6,11,0.1c1.3,1,2.7,2,4,3.1
		c2,2.7,3.9,5.4,5.9,8.1c0,0,0-0.1,0-0.1c0.3,0.5,0.7,1,1,1.5l-0.2,0.2c0,0,0.2,0.2,0.2,0.2c2.5,6.9,5.6,13.8,4.9,21.2
		c-1,11-0.7,22-1.1,32.9c-0.1,3.5-0.8,7-2.6,10.1c-2.3,4-2.5,8.1-2,12.5c1.4,13.1,2.8,26.2,2.6,39.3c-0.1,7.5,3.1,12.4,9.3,15.6
		c9.2,4.7,17.7,9.8,21.9,20c0.6,1.5,2,2.7,3.3,3.7c7,5.4,10.7,13,14.2,20.7c3.6,7.8,9.2,13,17.9,14.1c20.6,2.7,41.2,5.4,61.1,11.7
		c27,8.5,51.4,21.4,71.9,41.2c-0.1,0.2-0.3,0.3-0.5,0.4l-0.2-0.2l0,0.3c-41.2-0.1-82.3-0.2-123.5-0.3c-67-0.1-134-0.2-200.9-0.3
		c-1,0-2-0.1-3-0.2c-1.8-20.2-7.1-39.5-13.8-58.5c-4.2-11.9-8.9-23.5-16.1-34.1c-6.6-9.6-8.4-20.9-9-32.2
		c-0.5-9.5,1.1-19.1,0.3-28.3c-1.2-13.6,0.7-27.2-0.9-40.7c-1-15.2-5.2-29.6-9.9-43.9c0.1-0.8,0-1.6-0.7-2.1
		c-1-4.5-2.2-8.9-3.1-13.5c-0.6-3.2-1.9-6.7,1.3-9.2c3-2.4,5.6,0.3,8.2,1.3c0.5,0.2,0.9,0.3,1.4,0.5c0,0,0,0,0,0
		c4,3.3,8,6.6,12.1,9.9c0,0,0,0,0,0c0.4,1,1,1.6,2,2c0.3,0.3,0.6,0.7,0.9,1c2.5,3.4,5,6.9,8.6,9.3c0,0,0.1,0.1,0.1,0.1
		c0.3,1.3,1.1,2.1,2.3,2.6c0,0,0,0,0,0c0.3,0.4,0.7,0.8,1,1.2c0,0.4,0.2,0.6,0.6,0.8C292,128.9,296.3,133.9,302,137.5z M357,220
		c-5,1.7-7.2,5.2-8.5,9.5c-1.3,4.4,0.2,6.7,4.8,7.2c8.3,1,15-1.9,19.9-8.6c4.6-6.2,3.9-7.9-4.1-9.8c0.6,4.7-0.8,8.8-3.9,12.3
		c-3,3.3-4.1,3.1-6.2-1.1C357.5,226.7,356.5,223.6,357,220z M303.3,222.4c-0.7,1.8-1.3,3.5-2,5.2c-1.9,4.3-4.8,4.6-7.7,0.9
		c-2.1-2.8-3.2-6-2.8-9.3c0.5-3.7-1.6-3.4-3.8-3.2c-2.5,0.2-6.1-0.4-5.8,3.6c0.8,11.5,10.5,17.5,18.5,14.6
		C309.6,230.6,310,230.8,303.3,222.4z"/>
	<path class="st1" d="M357,220c-0.4,3.6,0.5,6.6,2,9.6c2.1,4.2,3.3,4.4,6.2,1.1c3.1-3.5,4.5-7.6,3.9-12.3c8,1.8,8.7,3.5,4.1,9.8
		c-5,6.7-11.6,9.6-19.9,8.6c-4.6-0.6-6.1-2.8-4.8-7.2C349.7,225.3,352,221.7,357,220z"/>
	<path class="st1" d="M303.3,222.4c6.6,8.3,6.3,8.2-3.5,11.7c-8,2.9-17.7-3.1-18.5-14.6c-0.3-4,3.3-3.4,5.8-3.6
		c2.2-0.2,4.3-0.5,3.8,3.2c-0.4,3.3,0.7,6.6,2.8,9.3c2.8,3.7,5.8,3.4,7.7-0.9C302.1,226,302.6,224.3,303.3,222.4z"/>
</g>
<g>
	<path d="M46.5,160l2.9,0.1l0.1,13.9h8.8v3.1L46.4,177L46.5,160z"/>
	<path d="M58.9,160l14.3,0.2l0.5,2.6H62.4v5.3l9.4,0.1l-0.1,2.4l-8.8,0.3v3.1l10.7,0.1l-0.2,3H58.9V160z"/>
	<path d="M91.6,160v2.6h-7.2l0.1,14.6H82l-0.2-14.4H73l-0.2-2.5L91.6,160z"/>
	<path d="M94.8,162c-0.4,1.4-1.1,3.3-1.6,4.1l-1,0.1c0.4-1,0.8-2.8,1-4L94.8,162z"/>
	<path d="M104.9,167.9c-1.1-1.9-3.2-2-3.2-2c-2.1-0.1-3.7-0.5-3.6,1.1c0.1,1.5,4,1.9,6.2,2.5c2.3,0.5,2.5,2.8,2.5,3.5
		c0,0.7,0,3.2-5.2,3.2c0,0-5.2,0-6.3-4.2l2.1-0.1c1.1,2.7,3.8,2.7,3.8,2.7c1,0,3.2,0,3.2-1.7c0-2.5-2.6-2-5.4-2.8
		c-2.8-0.8-3.5-1.9-3.8-3.2c-0.1-0.4,1.4-2.8,6.3-2.6c0,0,5.6,0.2,5.3,3.7H104.9z"/>
</g>
<g>
	<path d="M117.8,201c-3-5.2-8.6-5.4-8.6-5.4c-5.7-0.2-10-1.3-9.7,2.9s10.6,5.2,16.8,6.6c6.1,1.5,6.6,7.5,6.6,9.5c0,2,0,8.6-13.9,8.6
		c0,0-13.9,0-16.8-11.3l5.6-0.2c2.9,7.1,10.3,7.1,10.3,7.1c2.7,0,8.5,0,8.5-4.5c0-6.6-6.9-5.5-14.4-7.6c-7.5-2.1-9.3-5.1-10.2-8.7
		c-0.3-1.2,3.8-7.6,17-7.1c0,0,15.2,0.5,14.3,10H117.8z"/>
	<path d="M157.3,191v4.9h-13.6l0.2,27.4h-4.7l-0.5-27.1h-16.5l-0.5-4.7L157.3,191z"/>
	<path d="M166.8,191l15.6,31.8l-4.8,0.5l-6.1-11.8l-11-1.3l-3.8,13.1h-5l9.2-31.6L166.8,191z M161.6,206.4l8.7,1.2l-5.5-10.8
		L161.6,206.4z"/>
	<path d="M200.9,205.6c2,1.2,3.7,2.6,4.1,4c0,0,1.3,4.1,2.6,13.7l-4.2-0.4c-0.6-9-2.6-11.8-2.6-11.8c-1-1.4-4.2-3.3-7.1-4.8
		c0,0-2.6,0-4.6-0.2l0.5,17l-5-0.4l-0.2-30.9c23.8-3.6,23.5,7.8,23.5,7.8C207.7,203.1,204.6,204.8,200.9,205.6z M189.5,202.2
		c13.5,2.6,13.3-3.3,13.3-3.3s-0.2-5.9-13-2.8L189.5,202.2z"/>
	<path d="M242.3,191v4.9h-13.6l0.2,27.4h-4.7l-0.5-27.1h-16.5l-0.5-4.7L242.3,191z"/>
</g>
<g>
	<path d="M25.7,241.5l5.7,0.3L47,274.5l14.2-31.6l4.6,0.3l1.4,39.8l-4.6-0.3l-2.3-25.1l-10.8,24.8h-6l-11.9-25.9l0.3,25.6l-6.6,0.3
		L25.7,241.5z"/>
	<path d="M71.6,241.5l34.7,0.6l1.2,6.3H80.2v12.9l22.6,0.3l-0.3,5.7l-21.2,0.8v7.5l25.8,0.3l-0.6,7.1H71.6V241.5z"/>
	<path d="M129.6,241.5c20.8,0.4,25,12.8,25,21.4c0,8.8-6.9,20.5-29.8,20.2c-13.2-0.2-20.1-12.2-20.1-19.7
		C104.7,258.2,114.4,241.2,129.6,241.5z M145.9,269.4c4.4-12.8-4.2-18.8-11.5-20.4c-7.1-1.5-18.2-1.4-22.3,10.2
		c-3,8.5,9.5,17,13.8,17.9C132.1,278.5,143.4,276.8,145.9,269.4z"/>
	<path d="M153.9,243.4l7-0.5l5.9,31.2l7.6-32.6l6.2,1.4l8.7,27.2l5.1-26.9l8.4-0.6L191.3,283l-4.5-0.6l-8.4-33.1l-9.6,33.1h-4.5
		L153.9,243.4z"/>
</g>
</svg>
