<?xml version="1.0" encoding="utf-8"?>
<!-- Generator: Adobe Illustrator 20.0.0, SVG Export Plug-In . SVG Version: 6.00 Build 0)  -->
<svg version="1.1" id="Layer_1" xmlns="http://www.w3.org/2000/svg" xmlns:xlink="http://www.w3.org/1999/xlink" x="0px" y="0px"
	 viewBox="0 0 364.3 322.3" style="enable-background:new 0 0 364.3 322.3;" xml:space="preserve">
<style type="text/css">
	.st0{fill:#FAE9D7;}
	.st1{fill:#FAE7D4;}
	.st2{fill:#F6AA89;}
	.st3{fill:#F8C7AC;}
	.st4{fill:#FAE6D4;}
	.st5{fill:#F9D3BC;}
	.st6{fill:#FADDC9;}
	.st7{fill:#F8BC9F;}
	.st8{fill:#F8C3A8;}
	.st9{fill:#F6A785;}
	.st10{fill:#F6A989;}
	.st11{fill:#F5A27E;}
	.st12{fill:#F7B496;}
	.st13{fill:#F7BC9F;}
	.st14{fill:#F7B595;}
	.st15{fill:#F5A27D;}
	.st16{fill:#F7BB9E;}
	.st17{fill:#F7BA9D;}
	.st18{fill:#F8C7AD;}
	.st19{fill:#F6AB89;}
	.st20{fill:#F8CAB0;}
	.st21{fill:#F8CBB2;}
	.st22{fill:#F9D4BC;}
	.st23{fill:#F8D1B9;}
	.st24{fill:#F9CDB4;}
	.st25{fill:#F8C8AE;}
	.st26{fill:#F8BDA0;}
	.st27{fill:#F9D7C0;}
	.st28{fill:#FAD7C2;}
	.st29{fill:#F7C2A6;}
	.st30{fill:#F9D8C1;}
	.st31{fill:#F8C6AA;}
	.st32{fill:#FAD8C2;}
	.st33{fill:#F9D9C4;}
	.st34{fill:#F8CEB5;}
	.st35{fill:#F8CAB1;}
	.st36{fill:#F8CFB7;}
	.st37{fill:#F8C6AC;}
	.st38{fill:#FAD7C0;}
	.st39{fill:#F8CDB4;}
	.st40{fill:#F9CFB7;}
	.st41{fill:#F49C77;}
	.st42{fill:#F9D7C1;}
	.st43{fill:#F6AB8A;}
	.st44{fill:#F8C3A9;}
	.st45{fill:#F6A886;}
	.st46{fill:#F9D5BE;}
	.st47{fill:#F6B191;}
	.st48{fill:#F6B293;}
	.st49{fill:#F5A280;}
	.st50{fill:#F6AC8C;}
	.st51{fill:#F7B99C;}
	.st52{fill:#F8D0B7;}
	.st53{fill:#F8C9B0;}
	.st54{fill:#F9D1B9;}
	.st55{fill:#F7C3A8;}
	.st56{fill:#FAE4D0;}
	.st57{fill:#F9D6BE;}
	.st58{fill:#F6B090;}
	.st59{fill:#F5A986;}
	.st60{fill:#F6B596;}
	.st61{fill:#F49B74;}
	.st62{fill:#FAE4D2;}
	.st63{fill:#F6BB9D;}
	.st64{fill:#F8C4A8;}
	.st65{fill:#F7B291;}
	.st66{fill:#F5A582;}
	.st67{fill:#F6BC9E;}
	.st68{fill:#F5B392;}
	.st69{fill:#F5A886;}
	.st70{fill:#F6B99B;}
	.st71{fill:#F8C9AF;}
	.st72{fill:#F7BFA4;}
	.st73{fill:#F59F7B;}
	.st74{fill:#FAE4CF;}
	.st75{fill:#F9D4BD;}
	.st76{fill:#E5D9C8;}
	.st77{fill:#F8CBB1;}
	.st78{fill:#F6B697;}
	.st79{fill:#F9D9C3;}
	.st80{fill:#F8D9C2;}
	.st81{fill:#F7BD9E;}
	.st82{fill:#F7C7AD;}
	.st83{fill:#FBEFDE;}
	.st84{fill:#F7CAAF;}
	.st85{fill:#F8B495;}
	.st86{fill:#F9DBC5;}
	.st87{fill:#F9CCB4;}
	.st88{fill:#F8C9AE;}
	.st89{fill:#F6A988;}
	.st90{fill:#F7B395;}
	.st91{fill:#F8C4AA;}
	.st92{fill:#F8CDB5;}
	.st93{fill:#FAE0CD;}
	.st94{fill:#F9D2B9;}
	.st95{fill:#F8BB9D;}
	.st96{fill:#F9DFCB;}
	.st97{fill:#F6A887;}
	.st98{fill:#FBF3E5;}
</style>
<g id="VfDpj7_1_">
	<g>
		<path class="st0" d="M250.1,269.6c4.2-2.3,8-5,10.6-9.1c-0.1-0.9-1.6-1.3-0.9-2.5c3.3-3.1,6.1-6.8,10.3-8.9c0.5,0,0.9,0.1,1.2,0.5
			c0.8,2.4-0.8,4.2-1.2,6.4c-1.8,2.4-4.4,3.8-5.5,4.9c1.2-1.3,4.3-2.7,6-5.5c0.5-4.5,4.5-6.8,6.7-10.2c-1.5,0.9-2.6,2.5-4.4,3.1
			c-1.3,0.3-2.4,0.2-3.1-1.1c0-2.5,2.1-3.6,3.3-5.3c1.3-2.1,2.9-4.1,2.7-6.7c0.9-3.1,4.3-4.4,5.2-7.5c0.6-2,1.8-3.9,1.2-6.1
			c0-0.5,0-0.9,0.1-1.4c0.4-1.6,1.9-2.9,2.2-4.4c1.2-7.3,4.9-14,5-21.6c0-5.9,4.7-9.9,6.3-15.2c-0.2-0.8-1.3,0-0.6-0.1
			c0.3-0.1,0.4,0,0.4,0.2c0,0.8,0.3,1.9-0.4,2.2c-1.9,0.8-2.3-1.2-3.3-2.1c-0.3-0.4-0.5-0.9-0.6-1.3c-0.2-4.7,1.9-9,1.8-13.7
			c0-0.4,0.1-0.7-0.1-0.6c-0.2,0-0.3,0.1-0.4,0.2c-0.5-0.1-0.9-0.4-1.1-0.8c-0.8-5.3,0.9-10.5,0.3-15.8c0-0.7-1.1-0.1-0.4-0.1
			c0,0,0,0.1,0.1,0.1c1,2,0.2,3.4-1.5,4.6c-0.6,0-1.1-0.2-1.4-0.7c-1.5-2.4-0.9-5.1-0.9-7.7c0-3.8,0.3-7.6-0.9-11.3
			c0.1-1.9-1.5-3-2.3-4.5c-1.4-3.1-1.5-6.8-3.8-9.5c-0.7-1.1-1.3-2.4-2.2-3.4c-2.2-2.9-2-7.6-6.6-8.7c-0.5-0.1-0.9-0.3-1.2-0.5
			c-2.6-3.1-3.5-7.5-6.9-10.1c-0.8-1.1-2.2-1.2-3.2-2c-1.3-1.4-2.1-3.2-3.7-4.7c0.6,1.7,1.6,3.2,1,4.9c-0.3,0.7-0.8,1.2-1.6,1.2
			c-2.8-1.1-3.4-3.9-4.9-6.1c-2-2.9-4.1-5.6-6.5-8.2c-1.1-1.2-2.1-1.3-3.5-0.7c-2.3-0.5-3.5-2.3-4.9-3.9c-0.3-0.4-0.6-0.8-1-1.1
			c-0.2,0.6,0.4,1.1,0.2,1.7c-0.2,0.7-0.7,1.2-1.4,1.3c-2.9-1-4.7-3.5-7.4-4.8c-1.9-0.9-3.5-2.6-5.9-1.9c-0.5,0.1-0.9,0.1-1.4,0.1
			c-3.4-0.3-5.9-3.7-9.7-2.9c-2.9,0-5.4-1.8-8.4-1.8c-0.1,0-0.3,0.1-0.3,0.1c0,0.2,0,0.3,0,0.5c-0.3,0.7-0.9,1-1.6,1.2
			c-3,0.4-5.6-2.2-8.6-0.8c-1.1,0.2-2.3,0.2-3.4,0c-0.4-0.1-0.9-0.7-1.4-0.1c0.6,0.4,1,0.9,1.1,1.6c-2.5,3.2-5.5,0.4-8.2,0.6
			c-0.6,0-1.2-0.5-1.9-0.5c-1.1-0.1-2-1.2-3.2-0.7c0.5,0.3,1.7,0.3,0.9,1.5c-0.9,0.9-2,1.3-3.1,1.2c-4.2-0.5-8,1-11.8,2.4
			c-0.9,0.4-1.8,0.5-2.8,0.7c-1.6,0.7-3,1.8-4.7,2.3c-0.8,0.2-1.8,0.3-1,1.6c0,0.4-0.2,0.8-0.4,1.1c-2.1,1.1-4.5,1.3-6.8,1.8
			c0,0-0.4,0-0.4,0.1c-0.2,0.5,0.5,0.4,0.6,0.8c0.1,0.5,0,0.9-0.2,1.2c-1.2,1.1-2.8,1.4-4.2,2c-0.6,0.4-1.8,0.1-1.7,1.4
			c7.8-2.1,15.6-0.9,23.4-1c1,0,1.9,0.4,2.6,1.2c0.2,1.5-0.9,1.8-2,2c-9.3,0.3-18.7-0.9-28.7,2.8c5.9-2,11-2.7,16.1-2.8
			c5,0,9.9,0.2,14.9-0.1c1.7-0.1,3.4-0.2,3.8,2.2c-1.8,2-4.3,1.4-6.5,1.4c-8.4,0-16.8-0.3-25.1,2c-2.6,0.7-5.1,1.4-7.3,2.9
			c-0.3,0.2-0.7,0.5-0.9,0.7c2.8-0.4,5.4-1.7,8.2-2c1.8-0.2,4-0.8,4.7,2c-4.7,3.3-10.6,3.3-14.7,5c0,0,1-0.5,2.2-0.7
			c0.5,0.1,0.9,0.2,1.3,0.5c0.6,1.5-0.5,2.2-1.3,3c-1.6,1.4-3.5,2.4-5.4,3.3c-1.8,0.8-3.7,1.5-5.3,2.7c-0.8,0.6-2,1.4-1.6,2.3
			c2.8,5.7-0.9,9-4.5,12.4c0.8,1.6,3.2,1.5,3.5,3.3c0.3,1.9-1.1,3-2.1,4.3c-2,2.7,0.4,5.5-0.1,8.2c-0.5,0.5,0.8,0.7,0.2,0.4
			c-0.2-0.1-0.1-0.2,0.1-0.4c0.6-1.1,1.4-1.9,2.8-1.2c1,0.5,1.2,1.5,1,2.6c-0.2,1.8-1.4,3.5-0.4,5.3c3.6-4.4,3.7-4.9,3.6-9.8
			c-0.2-4.7,0.7-5.6,5.7-5.5c1.1,0,1.4-0.7,1.9-1.2c3-3.5,4.5-7.8,4.2-12.2c-0.2-2.6,0.6-3.6,2.4-4.7c1.9-1.1,4.1-1.5,5.8-2.8
			s4.9-1.6,3.8-5.3c-0.5-1.7,1.9-2,3.2-2.4c3.2-0.9,6.5-1.3,9.7-2.2c1.4-0.4,2.3-0.8,2-2.4c0.9-0.8,2-1,3.2-1.1c1.2,0,2-0.9,3.1-1.2
			c0.7-0.1,1.4-0.1,2.1,0.2c4.7,1.3,9.1,1.2,13.1-1.9c2-1.6,4.5-2,7.1-1.6c11.4,1.7,22.7,3.3,33.6,7.3c3,0.5,4.3,4,7.5,4.2
			c7,4.6,12.2,11,17.9,16.9c1.5,1.5,2.2,3.4,3.6,4.9c1.9,1.8,2.1,4.8,4.6,6c2-2.2,2.9-1.1,3.6,1.1c1.4,4.5,1.1,9.4,3,13.8
			c-0.2,0.6,0.2-0.3,0.2,0.4c0,0.4,0.2,0.4,0.1-0.1c-0.3-2.1-0.2-4.3,0-6.4c0.2-1.4,0-3.6,2.7-2.9c1.7,4.5,1.4,9.1,0.3,13.7
			c-0.2,0.6,0-0.3,0.1,0.4c0,0.2,0.3-0.7,0.8-0.5c1.7,0.7,1.4,2.3,1.5,3.7c0.2,2.1-0.2,4.2-0.5,5.7c0.1-1.1,0.7-2.8,0.5-4.6
			c0.2-3-0.1-6,1.8-8.6c0.5-0.3,1.1-0.2,1.6,0.1c2.7,4.6,0,9.1-0.2,13.6c-0.1,1.6-0.6,3.2-0.7,4.9c-0.3,1.9-0.9,3.7-2,5.3
			c-1.1,1.7,1.2,0.6,1.2,1.4c0.9,1.6,0.2,3.2-0.3,4.7c-0.3,0.6,0.1-0.2-0.2,0.4c-0.6,1.4-2.5,3,0.7,3.6c0.4,3.2-1.2,5.7-2.4,8.4
			c-0.6,1,0.2,1.9,0.3,2.9c-0.1,2-1.2,3.5-2.5,4.8c-0.1,0.1,0,0.3,0.1,0.4c0.1,0.1,0.3,0,0.5,0.1c0.4,0.2,0.7,0.4,0.8,0.8
			c0.4,2.8-1.7,4.4-3,6.1c1-0.8,1.8-2.4,3.6-1.6c1.2,2.1-0.3,3.5-1.5,4.8c-2.5,2.7-5,5.3-8.1,7.6c-0.5,0.1,0.3,0.8,0,0.2
			c-0.1-0.1,0.1-0.2,0.4-0.3c1.1-0.6,2.2-1.2,3,0.1c0.6,1-0.2,1.9-0.8,2.7c-2.2,2.8-6.2,3.9-7.2,7.7c0.4,0.6,0.5,1.1,0.3,1.8
			c-6,5.1-11.6,10.7-18.5,14.8c-1.5,0.9-4.2,1.1-3.3,4.1c0,0.5-0.2,0.9-0.5,1.3c-4,2.5-8.5,3.7-12.8,5.5c-1.2,0.5-0.5,2.1-1.5,2.7
			c-4.5,2.1-9.2,2.7-13.6,3.4c0.6,0.1,1.9,0,2.3,1.4c-0.1,0.6-0.4,1-0.9,1.3c-6.9,1.6-13.9,1.7-20.9,1.6c-2.5-0.6-5.2,0.6-7.7-0.4
			c-4-0.3-8.4-1.8-11.9-0.6c-5.9,2-10.5-1.4-15.7-1.8c-9.5-0.8-17.6-5.6-26.4-8.4c-8.3-2.6-14.2-7.9-20.8-12.7
			c-24.8-18-40.1-42.4-46.3-72c-6.9-32.8,0.1-63.1,19.4-90.5c1.6-0.4,2.2,0.6,2.5,1.9c-0.4,2.8-2.4,4.7-3.8,6.9
			c-1,1.6-1.4,3.3-1.4,5.2c0,0.7-0.1,1.4-0.2,2.1c-1.1,3.4-2.9,6.4-4.4,9.7c-0.3,0.4-0.6,0.7-1,1c-2.9,2.6-4,6-4.1,9.8
			c0.3,0.7,0.4,1.4,0.5,2.1c-0.2,3.7-1.3,7.2-2.3,10.8c-2.9,2.8-2.5,6.4-2.2,10c0.3,0.7,0.5,1.3,0.6,2c0.7,3.1-0.4,6.5,1.1,9.5
			c0.3,0.7,0.6,1.4,0.8,2.1c0.6,3.4,0,7,2.2,10.1c1.1,2,1,4.3,1.6,6.5c0.1,0.7,0,1.4-0.2,2.2c-1.5,2.7,0.1,5.3,0.5,7.6
			c0-1.6-1.4-3.3-0.8-5.3c2.2-2.3,0.4-5,0.9-7.5c0.2-0.4,0.4-0.7,0.7-1c1.7-3.4-0.5-6.2-1.3-9.2c-0.3-0.7-0.6-1.3-0.8-2
			c-0.4-2-0.5-4,0.1-5.9c0.2-0.5,0.4-0.9,0.6-1.3c1.6-1.8,1.7-4.2,2.6-6.2c0.5-1,1.3-1.9,1.3-3.1c-0.2-2.9,1.3-5.6,1-8.5
			c-0.1-1-0.4-1.9-0.5-2.9c2.3-8.5,2.1-17.7,6-25.8c1.2-0.8,0.3-1.9,0.2-2.9c0.5-2.9,1.4-5.6,4.1-7.2c0.5,0,1,0.1,1.4,0.4
			c0.8,0.6,1.5,1.3,1.7,2.3c0,0.3,0.1,0.7,0,1c-4.2,6.5-3.3,14.6-6.9,21.3c-1.9,3.6,2.5-0.5,1.8,1.5c1,2.3-0.5,4.1-1.2,6
			c-1.3,3.3-3,6.5-2.5,10.3c0.2,1,0.6,2,0.7,3c-0.1,3.9-1.2,7.7-0.7,11.5c0.1,1,0.5,1.9,0.7,2.9c0.7,3.8-1.4,7.5-0.2,10.8
			c-0.5,1.2-1,0.9-0.6,0.7c1.1-0.4,0.4-2.2,1.7-2.6c0.8,0,1.3,0.5,1.7,1.2c1.2,5.7-1.2,11.5,0.3,16.7c0,1.2,0.7,0.5,0,0.6
			c-0.1,0-0.1-0.2-0.1-0.5c-0.1-1-0.1-2,0.6-2.8c1.3-0.5,1.8,0.4,2.2,1.3c1.1,4.9,0.2,10.4,3.8,14.7c0.5-0.3,1.1-0.4,1.6,0
			c1.9,3.2,2.1,6.9,3.2,10.3c0.1,0.3,0.2,0.6,0.3,1c0.1-0.6-0.1-1.1,0-1.7c0.3-1,0.7-1.8,1.9-1.9c2.6,2.4,2.4,6,3.8,8.9
			c1.2,2.5,1.9,5.2,3.8,7.3c0.5,0.5,0.8-0.6,0.4-0.1c-0.2,0.2-0.3,0.2-0.5,0c-2.3-3.3-4.2-6.7-3.1-11c0.4-0.7,0.9-1.1,1.7-1.1
			c1.9,1.4,2,3.7,2.7,5.7c2,5.6,4,11.3,8.8,15.3c4.4,2.1,6.5,6.9,10.9,9c0.9,0.7,2,0.9,3.1,1.3c2.3,1.5,4.2,3.4,6.7,4.5
			c1.1,0.5,2-0.2,3.1-0.3c2.5,0.4,4.1,2.5,6.2,3.6c1.2,1,2.7,1.3,4.2,1.3c4.9,3,10.8,2.4,15.9,4.6c-0.7-0.5-1-1.1-0.8-2
			c4.2-1.7,6.9,2.1,10.4,2.8c0.6,0.1-0.2-0.1,0.5,0.1c0.3,0.1,0.3-0.1,0.1-0.6c0.3-0.7,0.9-1,1.6-1.2c2.6-0.2,4.9,1.2,7.3,1.7
			c1.8,1.1,3.2-0.3,4.7-0.8c0.8-0.1,1.6,0.3,1.4,0.3c-11.1-3.3-21.8-9.4-31.3-17.5c-1.3-1.1-2.9-2.4-2.7-4.5
			c0.3-0.4,0.6-0.7,1.1-0.8c4.3,0.8,6.6,4.7,10.2,6.5c8.8,5.9,17.7,11.4,28.2,13.8c3,0.7,5.9,0.7,8.8,0.6c1.4-0.5,2.9-0.5,4.2-0.8
			c-14-1.3-26.7-6.3-38.5-13.7c-2.1-1.3-4.1-2.9-6.4-3.9c-1.2-0.7-2-1.6-2.1-3c0.6-2.7,2.3-2.8,4.3-1.7s3.9,2.2,5.5,3.9
			c12.6,10.8,27.8,14,43.6,15.2c0.7-0.2-0.1-1,0.1-0.4c0.1,0.3,0,0.5-0.2,0.4c-12.6-0.7-24.6-3.6-35.8-9.6c-1.2-0.7-3-0.9-3.1-2.8
			c0.8-1.3,2-1.7,3.4-1.4c13.9,8.3,30.2,12.2,40.8,10.7c-6.9,0.6-15.4-0.4-23.8-3c-0.6-0.9-0.1-1.4,0.5-2c0.4-0.3,0.9-0.4,1.4-0.5
			c7.4,1,14.7,1.5,22.2,1.8c5.7,0.2,9.9-3.8,15.1-4.1c0.2-0.2,0.1-0.1-0.4,0c-2.3,0.2-5.9,2.6-6.6,0.1c-0.9-3.1,3.2-2.7,5.4-3.5
			c1.1-0.4,2.1-0.9,3.1-1.4c2.4-1.1,4.4-2.9,7-3.5c-2.3,0.4-4.2,2.1-6.5,2.6c-1,0.1-2-0.1-3-0.5c-6.1-2.1-12.5-1.7-18.7-1.7
			c4.2,0.1,8.3-0.4,12.5,0.3c2,3.5-1,3.5-2.8,3.7c-4.6,0.6-9.2,0.2-13.8,0.3c-2.1,0-4.3,0.3-6.4,0.3c-6.1-0.4-12-3-18.3-1.2
			c-1.7,0.3-3.4-0.1-4.7-1.2c-3.3-2.8-7-3.4-11.1-2.2c-5.1-3.5-10.9-5.8-16.6-7.7c-12.9-4.3-21-14.2-30-23c-1.2-1.2-2.6-2.4-2.6-4.1
			c-0.1-2.4-2,0.7-2.2-0.9c-1.9-2.3-2.1-5.2-2.1-8c0,1.1,0.3,2.4-1.5,2.3c-1.6-1-1.5-3.2-3.7-4.4c-2.2-1.1-1.6-4.6-1.6-7.2
			c-0.1-1.1-0.1-2.3-1.4-2.8c-0.1,3,1.5,6.2-1.7,8.5c-0.6-0.1-1-0.4-1.2-0.9c-0.6-5-0.3-10,0.2-15c-0.7,6.1-0.7,12.2-0.1,18.3
			c0.2,2.1,0.5,4.3-1,6.2c-0.5,0.4-1.1,0.4-1.6,0.1c-1.2-1.3-1.2-3-1.2-4.6c0.2-8.9-0.7-17.8,1.1-26.5c-0.4-2.2,3.1-4.6-0.4-6.7
			c-0.3-1.8,0.3-3.5,0.9-4.9c-0.7,1.2-0.9,2.8-1.1,4.4c0.1,1.9-0.2,3.6-2,4.7c-0.5,0.1-1,0-1.4-0.4c-1.9-4.8,1.8-8.9,1.9-13.5
			c0-0.5,0-1,0-1.5c-0.6-3.4,1.9-6.3,1.5-9.7c-0.3-2.4,0.5-4.4,1.8-6.4c1.1-1.6,2.3-3.2,1.6-5.4c-0.1-2.9,2.3-4.6,3.5-6.8
			c0.9-1.5,2.1-3,2.2-4.8c0.1-0.4,0.2-0.9,0.4-1.3c0.9-2.9,4.5-4.3,4-7.8c0.5-2.6,3-3.3,4.6-4.9c2.2-2.1,5.6-3.2,5.4-7.1
			c1.7-4.5,6.5-5.4,9.6-8.2c1.5-0.6,2.1-2,2.8-3.3c3.6-2.8,7.9-4.2,11.8-6.4c0.8-0.7-0.6-1.9,0.5-2.5c4.6-2.7,9.9-3.1,14.8-4.7
			c0.6-0.2-0.2-1.1,0.1-0.5c0.1,0.3,0,0.4-0.1,0.4c-1.6,0.6-3.1,0.8-4.3-0.9c0-0.6,0.2-1,0.7-1.4c3.8-1.9,8-1.8,12-2.2
			c3.7-0.4,7.5-0.8,11.2-1.6c2.5-0.7,5-1,7.6-1.2c3.3-0.3,6.6,0.1,9.9,0.2c2.1,0.3,3.9-0.6,5.7-1.4c2-0.5,3.9,0.1,5.9,0.4
			c4.6,0.6,9,2.4,13.8,1c1.6-0.5,3.2,0.6,4.8,1.2c3.8,1.6,7.6,3.3,11.5,4.8c0.9,0.3,1.9,1.1,2.2-0.6c2.3-1.3,3.8,0.4,5.3,1.5
			c4.9,3.6,9.8,7.3,14.5,10.5c-4.2-5.6-9.2-11.1-14.6-16.4c-1.1-1-2.1-2.2-1.9-3.9c1.9-0.1,3,1.3,4.2,2.4
			c7.6,6.8,14.3,14.4,19.5,23.2c1.1,1.9,2.5,3.5,4.2,4.9c55.7,45.3,54.3,124.6,14.1,171.1c-18,20.8-39.3,36.2-65.8,44.2
			c-1.1,0.3-2.3,0.5-3.4,0.8c-0.7,0.3-1.2,0.2-1.2-0.7c0-1.4,1.4-1.6,2.1-2.3c6.2-1.4,12.2-3.2,17.8-6.3c0.5-1.5,2.1-2,3.1-3
			c3.9-1.9,7.8-4,11.1-6.9C248.5,272.1,248.9,270.6,250.1,269.6z"/>
		<path class="st1" d="M76,81.3c-0.7-0.6-1.3-1.2-2-1.9c0.7-0.8,1.4-1.5,2.1-2.3c2.7-1.3,4.6-3.3,4.8-6.5c4.7-8.5,12-14.7,19-21.2
			c2.5-2.4,5.4-4.4,8.1-6.5c1.9,0.1,3.1-0.7,3.6-2.5c7.2-5.3,15-9.8,23.4-13c1.4,0.3,3.2-0.1,3.2,2.2c-5.6,3.8-12.2,5.4-17.9,8.9
			c-1.8,0.5-2.7,1.9-3.2,3.5c-3.5,2.8-6.8,5.7-10.1,8.5c-2,1,1.2,0.7,0.4,1.4c-2.9,4.7-8.3,6.8-11.1,11.6c-1,0.6-0.6,1.7-1,2.6
			c-2.5,3.9-7,6.6-6.9,12c-3.3,3.1-3.9,8.4-8.5,10.5C79,87.9,78.7,87,78.6,86c-0.2-1.2-0.4-2.5,0.4-3.3c5.2-5.8,6.4-14.1,12.4-19.4
			c1.6-1.5,3.3-3.3,3.5-5.8c1.6-2.6,4.3-4.1,6.5-6.1c-2.2,1.9-4.9,3.4-6.5,6c-0.4,0.7-0.2,1.7-0.8,2.3C87,66.6,84,76.2,77.8,83.6
			c-0.5,0.1-0.9,0-1.3-0.3C76.1,82.7,76,82,76,81.3z"/>
		<path class="st2" d="M137.9,29.3c-1-0.6-1.9-1.3-2.9-1.9c8.2-4.8,17.2-6.7,26.4-7.8c24.4-2.9,47,3.1,68,15.5
			c1.3,0.8,3.3,1,3.3,3.3c-7.4-3.7-14.4-8.2-22.2-11.1c-21.2-7.9-42.5-9.6-64.3-2.7c-1.2,0.4-2.6,0.4-3.6,2c5-0.7,9.7-1.3,14.4-1.9
			c0.3,0.5,0.4,1,0.2,1.6C151,28.8,144.7,30.7,137.9,29.3z"/>
		<path class="st3" d="M217,289.6c0.6,1.2-1.9,1.5-0.9,2.9c-21,6.4-41.7,5-62-2.6c-10.2-3.8-19.4-9.1-27.8-16.2
			c12.9,8.1,26.3,15.1,41.3,18.7c15.2,3.6,30.2,4,45.3-0.5c-1.2-0.9-2.6-0.3-3.9-0.4c-1,0.4-2.1,0.9-2-0.9
			C210.4,290.3,213.7,290,217,289.6z"/>
		<path class="st4" d="M172.2,278.2c15,4.1,30.1,6.9,45.7,6.1c1.1-0.1,2.6-1.3,2.9,0.9c-17,1.7-33.6-0.1-49.6-6.1
			C170.9,278.2,171.2,277.9,172.2,278.2z"/>
		<path class="st5" d="M228.9,277.3c-14.4,2.2-28.7,1.6-42.8-2.1c-0.2-0.9,0-1.4,1.1-1c13.8,2.6,27.8,3,41.8,2.1
			c0.2,0.2,0.3,0.5,0.2,0.7C229.1,277.2,229,277.3,228.9,277.3z"/>
		<path class="st6" d="M175.7,265.5c2.5-0.3,5-0.6,7.5-1c9.2,2.2,18.7,2.3,28.1,3.1c3.1,0.3,6.3-0.1,9.5,0.1c1.5,0.5,3.7-0.1,4,2.4
			C208.2,271.7,191.8,270.3,175.7,265.5z"/>
		<path class="st7" d="M224.9,270.3c-1.2-1.2-2.8-0.6-4.1-1c0.6-2.4,2.7-2.3,4.4-2.4c10.9-0.6,21.3-3.3,31.3-7.6
			c1.4-0.6,2.9-1.9,4.6-0.6c0,0.7,2.2,0.6,0.6,1.8C249.9,265.5,237.8,269.5,224.9,270.3z"/>
		<path class="st8" d="M178.8,289.6c-12.9-2.2-24.6-7.5-35.4-14.9c11.7,5.9,23.5,11.3,36.5,13.8C180.1,289.5,179.8,290,178.8,289.6z
			"/>
		<path class="st9" d="M178.8,289.6c0.4-0.4,0.7-0.7,1.1-1.1c9,2,18.1,2,27.2,2c0.7,0.3,1.3,0.6,2,0.9
			C198.8,293.4,188.8,292.2,178.8,289.6z"/>
		<path class="st10" d="M228.9,277.3c0-0.3,0-0.7,0.1-1c7.5-1.8,15.1-3.3,22.1-6.7c-0.2,1.6-0.4,3.1-2.2,3.8c-1.6-2-3.1-0.1-4.3,0.3
			C239.4,275.3,234.3,276.8,228.9,277.3z"/>
		<path class="st11" d="M220.8,285.2c-1-0.3-1.9-0.6-2.9-0.9c6.7-1.3,13.3-2.6,20-4c-0.6,1.5-1.5,2.6-3.1,3c-3-1.6-5.4,1.1-8.2,1.2
			C224.6,284.6,222.7,285,220.8,285.2z"/>
		<path class="st12" d="M187.2,274.2c-0.4,0.3-0.7,0.7-1.1,1c-3.5-0.9-7-1.6-10.1-3.5C179.8,271.9,183.5,272.9,187.2,274.2z"/>
		<path class="st13" d="M172.2,278.2c-0.4,0.3-0.7,0.7-1.1,1c-3.3-1.1-6.7-2.2-9.3-4.9C165.3,275.6,168.7,276.9,172.2,278.2z"/>
		<path class="st14" d="M111.6,40.4c0.6,0.2,2.2,0.1,1,1.1c-1.2,0.9-2.1,4.4-4.7,1.4C109,41.8,109.9,40.5,111.6,40.4z"/>
		<path class="st15" d="M114.7,263.9c2.4,1.2,4.4,2.8,5.7,5.2C117.9,268.2,116.1,266.2,114.7,263.9z"/>
		<path class="st16" d="M160.1,100.7c2,3.5-1.5,3.2-2.9,3.6c-3.6,1-7.4,1.6-11.7,2.4c2.3,1.6,3.5,2.1,0.5,4.3
			c-3.2,2.4-6.8,3.3-9.9,5.4c-1,0.7-4.1,0.9-1,3.1c0.5,0.3,0.7,1.7,0.4,2.2c-2.8,4.9-2.6,11.7-9.4,14.2c-1.2-0.5,1.7-2.9-0.6-2.7
			c-1.4,0.1-3.3,1.4-2.5,3.5c1.5,4.3,0.1,7.9-2.7,11.1c-0.7,0.8,0,3.6-2.7,2.1c-2-1.1-2.1-2.6-1.5-4.4c0.5-1.5,1.9-2.7,1.1-4.7
			c-2.8,0.6-2.3,3.7-5,5.1c2.3-3.4,0.8-6.3,0.1-9c-0.5-1.7-0.4-2.5,0.6-3.8c3.7-4.4,3.6-4.5-2.7-5.6c1.5-2.8,4-4.6,5.8-6.8
			c1.5-1.9,2.2-4,0-5.9c-0.6-0.5-1.7-1-0.7-1.9c2.6-2.3,4.6-6,9.1-4.5c2.5,1.9,4.4,5.2,8.6,3.8c-3.5-2.3-3-5.2,1.1-8.3
			c7.3-2.8,15.1-3.4,22.8-4.7C157.9,99.1,159.3,99.3,160.1,100.7z"/>
		<path class="st13" d="M238,206.4c0-1.9,1.7-2.2,2.8-3c1.1-0.9,3.1-1,2.9-3c-0.2-2.6-2.8-1.1-3.9-2.1c-0.1-2.1,3.1-1.8,3-4
			c0.8-4.4,3.7-7.9,4.5-12.4c0.5-2.5,4.6,1.5,5.6-2.6c2.4,7-2.2,12.3-1.9,18c0.4,7.6-3.8,12.4-8.2,17.3c-2.3-0.7-4,1.2-6.1,1.5
			c-1.5,0-3-0.9-4.5,0c-0.6,0.3-1.2,0.5-1.9,0.6c-1.1,0.2-2.2,0.6-3.1-0.3c-2.5-0.1-5.1-0.2-7.6-0.3c0.6-3.2,5.6-1.4,5.8-5.1
			c5.8,2.5,10.2-1.8,15.2-3.4C239.9,207.3,238.7,207.3,238,206.4z"/>
		<path class="st17" d="M117.9,198.5c-1-1.7-1.9-3.4-2.9-5.1c-2-1.6-2.6-3.7-2-6.1c0.7,0,1.2-2.1,2.2-0.3c6.6,11.1,18,17.2,27,25.9
			c4.7-1.4,7.3,3.3,11,3.7c4.5,0.6,7.4,3.3,10.9,5.3c1.3,1.9,1.7,3.8,0.7,5.9c-0.7,0.2-1.4,0-1.8-0.6c-1.7-1.2-3.5-2.4-5.2-3.6
			c-1.3-1-2.1-0.4-2.8,0.8c-2.1,1-3.5-0.3-4.8-1.5c-1.3-1.1-2.6-2-4.2-2.3c-3.5-1.1-4.9-5.1-8.5-6.1c-2.3-0.2-3.7-2.3-5.9-2.9
			c-0.8-0.3-1.7-0.7-2.4-1.2c-3.3-2.2-4.1-6.7-7.6-8.7c-0.9-0.6-1.6-1.5-2.2-2.3C119,198.9,118.5,198.6,117.9,198.5z"/>
		<path class="st18" d="M166.1,98.7c-0.2,1.3-1,1.9-2.3,1.6c-5.7-1.2-11.2,0.1-16.7,1.3c-4.4,0.9-8.8,0.3-13.1,1.7
			c-0.9,0.3-2,0-2.7-0.8c-0.4,0-0.9,0-1.3-0.1c2.8-3.2,6.9-3.1,10.5-4.4c0.9-0.3,1.9-0.3,2.6-1c3.6-1.8,7.5-0.8,11.2-1
			c4.7-0.3,9.4-0.3,11.8-0.1c-3.2,0-8.6,0.1-14.1,0c-1.3,0-3.6,1-3.7-1c-0.1-2,2.4-1.8,3.9-1.9c4.6-0.1,9.3,0,13.9-0.1
			c1.3,0,2.7,0,4-0.3c3.1-1.1,5,3.9,8,2c-0.9-0.4-3.1,2-3-1.6c4.8-1.3,9.6-1.8,14.2,0.9c0.1,0.6,0,1.1-0.4,1.6
			c-2.2-0.5-4.4,0.2-6.2,1c-3.2,1.5-8.1,3.7-10.9,3.9c-1.6,0.1-3.4,0.4-3.9-1.9c1.6-1.1,3.2-0.6,4.8-0.4c-6-0.4-12-0.1-17.8-0.3
			C158.4,98.5,162.4,97,166.1,98.7z"/>
		<path class="st18" d="M188.9,95.5c0-0.4,0-0.8,0-1.2c0.8-1.1,2.2-1.4,3-2.4c0.1-1-0.7-1.8-0.6-2.8c0.1-0.4,0.3-0.8,0.7-1.1
			c1.6-0.9,3.1-0.3,4.7,0.2c1.5,0.7,2.9,1.7,4.7,1.8c2.5,1,5.1,1.4,7.5,2.3c1,0.4,2,0.8,3.1,0.5c0.4-0.1,0.9-0.1,1.3,0
			c2.2,0.5,3.5,2.9,5.9,3.2c1.4,0.8,2.9,1.4,2.9,3.4c-2.8,0.8,1.2,2.1-0.2,3c-2.5,1.4-4.8-0.1-6.5-1.2c-2.8-1.7-4.9-2.7-8.5-1.4
			c-2,0.7-4.8-1.9-7.7-2.4C195.9,96.9,192.4,96,188.9,95.5z"/>
		<path class="st19" d="M218.9,95.5c0.6-3.2-3.1-3.3-4-5.5c-0.2-0.4-0.4-0.8-0.4-1.3c0.2-0.4,0.6-0.7,1.1-0.7s0.9,0.2,1.3,0.4
			c4.2,3,6.9,7.7,11.5,10.3c0.8,0.4,1.6,0.9,2.2,1.6c1,1.8,2.8,2.9,4.2,4.3c6.1,5,9.5,11.7,12,18.9c-1.3-0.1-1.9-1.2-2.6-2.1
			c-4.6-5.5-10.2-10.2-15.4-15.1c-3.7-0.9-5.2-4-6.9-6.9c-1-1-2-2-3-3c-0.3-0.2-0.4-0.4-0.3-0.6C218.7,95.6,218.8,95.5,218.9,95.5z"
			/>
		<path class="st20" d="M261.9,119.5c1.5,6.6,2.8,13.2,2.9,20.1c-1.7,4.5,0,9.3-1.1,14c-2.5-0.5-1-3.4-2.8-4.2
			c-0.4-19.1-5.4-37-13.9-54c-0.9-1.8-1.7-3.6-2.6-5.4c2.7-0.3,3.8,1.7,4.8,3.6c7.8,14.5,12,30,13.3,45.7c0.3-5.8-2.5-11.9-2.4-18.4
			C260.4,120,260.9,119.3,261.9,119.5z"/>
		<path class="st21" d="M268.2,169.8c2.1-0.8,2.1-2.9,2.5-4.5c4.8-19.9,6.4-39.8,1.4-59.9c0.3,0,0.6,0,0.9,0
			c4.3,12.3,4.7,25,3.7,37.8c-0.8,10.8-3.4,21.2-7.6,31.2c-1.1,0.4-1.1,2.1-2.5,2.2C265.8,174.1,268.2,172.2,268.2,169.8z"/>
		<path class="st22" d="M218.9,72.9c15.5,12,25.1,28,32.1,45.9c0.7,1.9,1.4,3.7,2.1,5.6c1.6,3.2,1.8,6.7,2.7,10.1
			c-0.7,0.1-1.2,2.1-2.2,0.4c-1.1-2-2.2-4-3.3-6c0.2-5-0.9-9.7-2.8-14.2c-6-14.4-14.5-27.2-25.9-37.9
			C220.6,75.7,218.9,74.9,218.9,72.9z"/>
		<path class="st21" d="M113,187.4c0.7,2,1.3,4.1,2,6.1c3.3,12.9,10.1,24.1,18.1,34.5c3.5,4.6,7.6,8.6,11.1,13.1
			c-18.1-15.1-28.1-35.2-34.5-57.4c-0.5-0.7-1.5-1.3-0.4-2.3c0.8,0.4,0.6-4.2,2.1-0.4C112.1,183,113,185.1,113,187.4z"/>
		<path class="st23" d="M137,242.8c2-1.2,0.1-1.9-0.5-2.5c-15.3-15.1-23.5-34-29.1-54.2c-0.2-0.9-0.7-2,0.6-2.5
			c0.5,0.2,0.8,0.5,0.8,1c4.6,21.4,15.2,39.7,29.7,55.9c0.9,1,1.7,2,2.5,3C139.3,245.2,138.2,243.5,137,242.8z"/>
		<path class="st24" d="M288.9,130.5c-2.6,5.5-1.7,11.6-2.9,17.3c-3.4,16.8-9.7,32.3-19.2,46.5c0-0.8-3.5,0.1-1-1.9
			c7.5-10.3,12.1-22,16-34c3.3-10.1,4.4-20.4,4.2-31C287.3,128.3,289.1,128.5,288.9,130.5z"/>
		<path class="st25" d="M281.9,117.2c-0.3,11.6,0.7,23.1-1.8,34.6c-2.4,11.1-6.4,21.5-11.2,31.7c-1.9-0.7-1.2,2.3-3,1.9
			c0.5-2,0.5-4.2,1.8-6c0.8,2.9,1.3,0.6,1.6-0.1c5.5-12.3,9.3-25.1,10.7-38.6c0.9-8.8,1.1-17.5,0-26.3
			C281.8,114.6,282.1,115.7,281.9,117.2z"/>
		<path class="st26" d="M204.9,262.5c14.9-0.2,29.5-2.1,43.8-6.2c7.9-2.3,15.4-5.2,22.3-9.8c0.7,1.2,1.8,0.9,2.9,0.9
			c0.4,1.6-0.3,2.2-1.9,2l-0.2-0.2c-1.9-1.3-3.1,0.6-4.4,1.2c-19.8,9.6-40.7,13.7-62.6,12.8C204.9,263,204.9,262.8,204.9,262.5z"/>
		<path class="st27" d="M145.9,219.4c4.3-0.7,5.5,4.2,9,4.9c0.6,0.7,1.2,1.3,1.8,2c11.5,8.5,24,14.6,38.1,17.6
			c3.4,0.7,6.9,0.1,10.2,1.6c-2.2,1.6-5.1,0.4-7.4,1.7c-14.3-1.2-26.5-7.6-38.2-15.3c-3.3-2.2-6-5.2-9.5-7.2
			C147.7,223.6,145.5,222.5,145.9,219.4z"/>
		<path class="st20" d="M270.1,149.5c0.9-15.3,0.3-30.5-4.2-45.4c-1.1-3.6-2.4-7.2-3.7-10.8c1-0.6,2.1-1.6,2.7,0.5
			c1.5,7.4,4.8,14.4,5.6,22.1c1.3,11.2,2.5,22.4,0.4,33.6C270.7,149.5,270.4,149.5,270.1,149.5z"/>
		<path class="st28" d="M192,233.3c-4.8-1.9-9.7-3.5-13-7.9c6.2-3.3,12-0.1,17.9,0.9c-1.3,2-5.6,1.2-5.1,4c0.4,2.3,4.1,1.7,6.2,2.7
			c0.6,0.3,1.2,0.5,2.5,1.1C197.1,234.8,194.6,233.2,192,233.3z"/>
		<path class="st29" d="M95.9,136.5c-6,9.9-8.5,21-10.8,32.2c-1.5,7.2-1.2,14.5-1.2,21.8c-0.3,0.4-0.7,0.7-1,1.1
			c-2.3-10.3,0-20.4,2.1-30.4c1.7-8.3,5.1-16.1,8.5-23.8c0.5-1,0.8-2.3,2.4-2.1C95.8,135.6,95.9,136.1,95.9,136.5z"/>
		<path class="st30" d="M177,249.6c0.2-0.1,0.3-0.1,0.5-0.2c0.2-0.1,0.3-0.2,0.4-0.2c-0.9-1.2-2.4-1.4-3.6-2
			c-17.2-7.8-30.9-19.6-41.9-34.9c2.3-0.1,2.9,2,4,3.2c12.3,14.5,26.5,26.2,44.6,32.8C180.2,250.5,179,251.3,177,249.6z"/>
		<path class="st31" d="M258.1,93.3c6.8,14,9.3,28.9,9.7,44.3c-0.5,4.6-0.6,9.2,0,13.8c0,2,0,4,0,6c0,0.5-0.2,0.6-0.6,0.3
			c-0.4-1.4,0.2-3-1.1-4.1c0.3-14,0.5-28.1-3-41.8c-1.5-5.9-3.7-11.6-5.9-17.3C257.4,94,257.8,93.6,258.1,93.3z"/>
		<path class="st25" d="M106,102.9c-7.4,7.6-14.8,15.1-21.1,23.8c-5.3,7.4-9.7,15.4-12.8,24c-0.4-0.8-0.8-1.5-1.1-2.3
			c4.5-8,7.9-16.6,13.5-24.1c6.3-8.4,13.8-15.6,21.5-22.6C106,102.1,106,102.5,106,102.9z"/>
		<path class="st32" d="M191.9,89.6c0.2,1.3,3.9,0.1,2,2.9c-4.3,1.3-7.9-1.4-11.8-2.1c-1.8-0.3-3.5-0.9-5.2-1.4
			c-13.5-3.9-27.2-4.9-41-1.6c0.2-2.5,2.2-3.1,4.1-3.8c5.5-0.3,10.9-1.6,16.6-1.6c11.8,0,23,2.8,33.9,6.7
			C191,88.8,191.5,89.2,191.9,89.6z"/>
		<path class="st33" d="M61.3,117.5c-0.4-0.5-0.8-0.9-1.1-1.4c2.1-3.3,1.9-7.7,4.7-10.6c0.3,0,0.6,0,0.9,0c1.1,0.4,1.5,1.2,1.9,2.2
			c0.3,4.5-3.6,8.4-1.9,13c0.1,0.5,0.2,0.9,0.3,1.4c0.3,4-3.4,7.9-0.6,12c0.2,0.5,0.3,0.9,0.4,1.4c-0.7,3.9-0.2,7.9-0.7,11.9
			c-0.3,0-0.7,0.1-1,0.1c-2.6-0.7-2.3-3.3-3.2-5.1c-0.1-0.5-0.2-1-0.3-1.6c-0.3-3.6,0.1-7.2-0.3-10.8c-0.9-2.7,0.5-5.2,0.9-7.8
			C61.5,120.6,62.6,119.1,61.3,117.5z"/>
		<path class="st34" d="M98.1,151.4c-0.1-0.1-0.1-0.3-0.2-0.4c-0.8-0.8-0.6,0-0.7,0.4c-3.6,17-4.4,34-1.4,51.1
			c-0.3,0.4-0.6,0.7-0.9,1.1c-3.5-12.5-2.2-25.2-1.4-37.9c0.4-6.4,1.8-12.8,2.7-19.1c0.1-0.6,0.3-0.7,0.7-0.3
			C100.7,147.2,98.9,149.4,98.1,151.4z"/>
		<path class="st35" d="M265.2,200.5c11.2-14.8,20.2-30.8,24.7-49.1c0.3,0,0.7,0,1,0c-3.6,18.6-12.6,34.5-24.3,49.1
			C266.1,200.5,265.6,200.5,265.2,200.5z"/>
		<path class="st36" d="M250,112.3c-6.3-16.3-15.2-30.8-29-41.9c0.4,0,0.8,0,1.2,0c8.6,5.6,14.5,13.6,19.8,22
			c3.3,5.2,5.9,10.8,8.1,16.5C250.5,110.1,251.8,111.3,250,112.3z"/>
		<path class="st37" d="M88.9,200.6c-2.6-9.4-1.7-19-0.6-28.5c0.9-7.3,1.7-14.7,4.5-21.7c0.3-0.1,0.7-0.1,1-0.1
			c-2.9,12.8-5.4,25.6-4.7,38.8c0.2,3.1,0.5,6.3,0.7,9.4C89.5,199.2,89.2,199.9,88.9,200.6z"/>
		<path class="st38" d="M267.9,205c-0.4-1.4,0.6-2.2,1.3-3.1c9.9-11.6,17.7-24.4,23.4-38.5c0.4,0,0.8,0,1.1,0
			C288.6,179.4,279.5,193,267.9,205z"/>
		<path class="st39" d="M94,128.9c-0.1,0.8,0,1.7-0.4,2.4c-8,14.2-13.5,29.1-15.5,45.3c-0.3-0.7-0.6-1.4-1-2.1
			C78.6,157.8,85,142.8,94,128.9z"/>
		<path class="st40" d="M61.8,141.1c0.1,0.4,0.1,0.8,0.2,1.2c0.9,4-0.4,8.4,2,12.1c0.3,0.4,0.7,0.7,1,1.1c-1,3.3,2,6.5,0.1,9.8
			l-0.2,0.2c-0.2,0.4-1.2-0.7-1,0.5c0.2,1.3,0.4,2.6-1,3.4c-1.5-1.8-0.5-4.4-1.8-6.3c-0.6-3.6-0.3-7.4-2.1-10.8
			c-0.3-0.3-0.6-0.7-1-1c-0.3-3.6,0.8-7.4-0.9-10.9c-0.3-0.4-0.7-0.8-1-1.3c1.1-1.2-0.9-4.3,2.4-4.3
			C61.2,136.2,59.9,139.5,61.8,141.1z"/>
		<path class="st41" d="M133,105.5c-1.5,1.2,0.7,4.1-2.7,4.4c1.9,0.8,3.4,1.4,5.2,2.2c-2.5,1.2-4.3,2.8-6.9,3c0.9-3.8-6.4-2-4.5-6.5
			c0.6-2.6,3.6-2.3,5-4C130.4,104.7,132.4,102.2,133,105.5z"/>
		<path class="st42" d="M226,211.5c2.3-1.6,4.7-3.3,7-4.9c1.8,2.7,3.3-0.8,5-0.2c1.9-1.4,3.5,0.9,5.4,0.2c-4,3.6-8.7,5.4-13.5,7
			C228.2,214.3,226.9,213.1,226,211.5z"/>
		<path class="st43" d="M145.4,63.4c-12.9,1.3-24.9,5.5-36.6,10.7c-2.4,1.1-4.7,2.2-7.2,2.8c12.9-8.5,27.7-11.9,42.5-15.4
			C144.5,62.2,145,62.8,145.4,63.4z"/>
		<path class="st44" d="M191.6,89.6c-13.9-6.8-28.5-9.3-43.8-7.7c-1,0.1-2,0.2-2.9,0.3c0-0.2,0-0.5,0-0.7c7.8-2.4,15.7-1.6,23.5-0.6
			c8.2,1.1,16.1,3.4,23.6,7c-0.1,0.5-0.1,1.1-0.2,1.7C191.9,89.6,191.6,89.6,191.6,89.6z"/>
		<path class="st33" d="M69,108.4c0.5,4.1,0.6,8.2-0.8,12.3c-0.6,1.7-1.4,4.1,0.8,5.8c0.8,0.6,0.9,1.4,0.7,2.3
			c-0.5,3.2-3.2,6.2-0.8,9.7c0,1.3-0.7,2-2,2c-3.5-1.1-0.7-4.3-2.1-6.1v0.1c-2-2.9-0.2-5.7,0.2-8.6c0.2-1.4,1.2-2.8,0.1-4.2
			c-0.1-0.2-0.3-0.4-0.4-0.6c-0.1-4,1.6-7.7,2.5-11.5C67.5,108.8,68,108.1,69,108.4z"/>
		<path class="st45" d="M157.1,72.5c5.5,2,11.4,1.3,17,2.8c5.1,1.4,10.4,2.3,15,5c-0.2,0.5-0.5,0.7-1,0.9c-11.3-4.6-23.1-6.4-35.2-6
			C154.3,74.3,155.7,73.4,157.1,72.5z"/>
		<path class="st46" d="M105.9,202.5c3.2,11.5,9,21.8,15.1,32c-1,0-2.1,0.2-3-0.7c1.8-1.9-0.6-2.6-1.2-3.5c-5.4-8.2-9.7-17-12-26.6
			C104.4,202.5,104.9,202.3,105.9,202.5z"/>
		<path class="st47" d="M307,154.4c0.7,0,1.3,0,2,0c1.2-1.5-0.5-3.7,1.1-5.1c0.7,2.4,2.3,4.9-1.5,6.2c-0.9,2.7-0.9,5.4-0.3,8
			c0.2-1.6-1.5-3.7,0.8-5.2c1.6,3,0.4,6.2,0.8,9.3c-0.1,0.2-0.2,0.5-0.2,0.7c-0.5,1.4-0.2,2.9-0.7,4.3c-0.4,1.1-0.7,2.7-2.6,1.6
			c-1.5-3.1,0.8-6.8-1.6-9.7l0.1,0.1c-1.2-3.8-2.4-7.6-1.1-11.6c0.1-0.5,0.2-1.1,0.3-1.6C306.3,151.3,305.6,153.8,307,154.4z"/>
		<path class="st16" d="M266,234.4c-3.7,3.7-8.6,5.2-13.2,7.2c-7.1,3.1-14.5,5.5-21.9,7.5c0-0.3,0-0.5,0.1-0.8
			C242.8,244.1,254.5,239.5,266,234.4z"/>
		<path class="st48" d="M196.8,50.3c0.7-0.4,1.4-0.8,2.3-1.3c-8.3-3.3-17-4.3-25.3-6.4c0.4-1,1.5-0.4,2.1-1
			c8.9,1.6,17.7,3.7,26.2,6.7C200.7,49.8,199.1,51.1,196.8,50.3z"/>
		<path class="st49" d="M124.8,59.3c9.8-3.3,20-4.1,30.2-4.7c0,0.3,0,0.5-0.1,0.8c-8.4,1.7-17,1.7-25.3,4.1
			c-1.3,0.4-2.6,0.5-3.9,0.8C125.5,60,124.9,59.9,124.8,59.3z"/>
		<path class="st50" d="M217,254.4c4,2.2,7.9-0.1,11.8-0.6c4.8-0.6,9.6-2.1,14.4-3.2c0.4,0.2,1.1,0.2,1,1
			c-8.9,3.1-18.1,4.2-27.3,5.6c-0.7-0.5-2-1-2-1.6C214.8,254.7,216,254.4,217,254.4z"/>
		<path class="st51" d="M105.9,202.5c-0.3,0.4-0.7,0.7-1,1.1c-3.1-9.1-4.4-18.6-4.7-28.2c0.3,0,0.5,0,0.8,0c0.7,0.1,0.7,0.7,0.9,1.2
			C101.9,185.4,103.8,194,105.9,202.5z"/>
		<path class="st52" d="M307.7,187.1c0.5,2.4,2.3,4.8,0.5,7.3c-0.6,0.3-0.8-1.5-1-0.5c-0.7,2.5-1.2,5-2.1,7.4c-0.3,0-0.7,0.1-1,0.1
			c-0.5-0.7-1.2-1-2-1c-0.4-0.3-0.9-0.6-1.3-0.8c0-0.2,0-0.5,0.1-0.7c1.8-3.9,2.5-8.1,3.2-12.3c0.2-0.4,0.6-0.8,0.9-1.1
			c0-1.1-0.1-2.2,0.8-3.1C308.1,183.3,305.7,186.1,307.7,187.1z"/>
		<path class="st52" d="M298.9,194.4c-0.9,0.3-1.9,0.7-2.8,1c-2.4-1.9,0.3-4.6-1-6.7c0.3-1.5,1.7-1.6,2.6-2.3c2,1.4,1.2,3,0.8,4.5
			c0.8-0.3,0.2-1.6,0.7-2.3c0.8-1.7,1.5-3.6,4-2.1c0.8,4.5-0.9,8.6-2.3,12.8l-0.3,0.3c-0.2-0.1-0.4-0.1-0.7-0.1
			C298,198.2,299.6,196.1,298.9,194.4z"/>
		<path class="st42" d="M229.7,220.4c-0.2-1.4-1.7-0.7-2.3-1.3c0.3-1.6,4.6-0.3,2.6-3.6c0.6,0,1.2,0,1.8,0c1.7-1.6,3.4,1.8,5.1,0
			c1.8-1.4,3.7-3.1,6-0.8C239,217.6,234.3,218.8,229.7,220.4z"/>
		<path class="st53" d="M176.9,80.6c-8.3-1.7-16.6-2.4-25-2.3c0-0.3,0-0.6,0.1-0.9c8.5-1.4,16.8,0.2,25,2.2c0.2,0.2,0.3,0.4,0.2,0.7
			C177.1,80.5,177,80.6,176.9,80.6z"/>
		<path class="st54" d="M105.7,183.6c0.2,1.6,0.3,3.1,0.5,4.7c0.4,1,0,1.2-1,1.1c-0.8-5.2-1.6-10.5-2.5-15.7
			c-1.5-3.5-1.5-7.2-1.1-10.9c1.2,2.3,3.1,4.2,3.1,7c-0.7,2.4-0.6,4.8,0.5,7.2C106.3,179.1,106.1,181.3,105.7,183.6z"/>
		<path class="st55" d="M84.1,138c-3.5,7.3-6.7,14.8-9,22.6c-0.3-0.4-0.7-0.7-1-1.1c1.9-8.3,5.3-16,9.8-23.2
			C84.4,136.9,84.4,137.4,84.1,138z"/>
		<path class="st8" d="M178.9,51.4c-5.4-2.8-11.6-1-17.1-2.9c0.8-1.2,2.1-0.2,3-0.9c7.2,0.5,14.3,1.3,21.3,2.7
			C183.7,50.7,181.3,51,178.9,51.4z"/>
		<path class="st56" d="M127.9,96.5c6.9-1.7,13.6-4.4,20.9-4.2c0.9-0.3,1.9-0.9,1.9,0.9c-6.3,0.2-12.3,1.7-18.3,3.5
			c-1.4,0.4-2.8,2-4.4,0.4C128,96.9,127.9,96.7,127.9,96.5z"/>
		<path class="st57" d="M154.9,239.4c4.7,2.7,9.4,5.3,14.1,8c-0.3,0.3-0.7,0.5-1,0.8C163.3,245.8,158.3,243.8,154.9,239.4z"/>
		<path class="st58" d="M98.8,197.6c-1.2-4.3-1.9-8.8-1.7-13.3c0.3,0,0.6,0,0.9,0.1c1.5,3.5,1,7.4,1.8,11.1
			C99.2,196.1,99.8,197.3,98.8,197.6z"/>
		<path class="st59" d="M302.7,186.4c-2,0-1.6,2.2-2.6,3.1c-1.7-2.4-1.4-4.7,0-7.1c1.6-1.3,0.2-3.7,1.7-5c2.5,1.4-0.2,4.5,2,6
			c0.2,0.8,0.1,1.8,1.1,2.1c-0.1,0.4-0.2,0.8-0.3,1.2C303.9,187.1,303.3,187,302.7,186.4z"/>
		<path class="st60" d="M120.7,75.2c3.5-2.1,7.3-3.5,11.2-4.7c1.2,2.2,0,2.7-1.9,3c-3.2-0.3-5.8,2-8.9,2.2
			C121,75.5,120.9,75.3,120.7,75.2z"/>
		<path class="st61" d="M222,99.5c3.4,1.2,3.9,5.3,6.9,6.9c-3.8,1.4-4.3-3.3-6.9-4C222.8,101.4,217.8,100.4,222,99.5z"/>
		<path class="st62" d="M189.1,235.1c-4.8-1.8-10.3-2.1-14.2-6.1c5.1,1.8,10.1,3.6,15.2,5.4C189.7,234.6,189.4,234.9,189.1,235.1z"
			/>
		<path class="st63" d="M123.9,231.2c2.8,2,4.8,4.8,7,7.3c-0.7,1-1,3.4-3,1.1c1.9-1.9-0.7-2.4-1.2-3.4
			C126,234.4,123.7,233.5,123.9,231.2z"/>
		<path class="st64" d="M164.8,86.7c4,0.6,8,1.2,12.1,1.9c0.3,0.2,0.4,0.4,0.3,0.7c-0.1,0.2-0.1,0.4-0.2,0.4
			c-4.7-0.7-9.3-1.4-14-2.1C163.5,87.2,164.2,87,164.8,86.7z"/>
		<path class="st65" d="M201.9,66.6c3.2,1.3,6.1,3,8.3,6c-3.1-1.7-6.2-3.4-9.3-5.1C201.2,67.2,201.5,66.9,201.9,66.6z"/>
		<path class="st47" d="M308.9,184.5c0.6-0.9,1.2-1.8,2.1-3.2c1.2,3-0.3,5.2-0.4,7.6C308.2,187.8,309.3,185.9,308.9,184.5
			L308.9,184.5z"/>
		<path class="st66" d="M70,93.4c0.4,0,0.7,0.1,1.1,0.1c2.3-0.1,0.8,2.1,1.7,2.8c0.1,1.3,0.5,2.2,1.9,1c0.1,0.7,1.1,1.3,0.3,2.1
			c-0.7,0.4-1.3,0.7-2,1.1c-1.7-0.3-1.4-1.9-1.9-2.9c-0.2-0.8,0-1.9-1.2-2.2C70,94.8,70,94.1,70,93.4z"/>
		<path class="st67" d="M284,222.1c-2.1,2.2-3.8,4.7-7,5.4c1.8-2.8,4.7-4.7,7.1-7C284,221,284,221.5,284,222.1z"/>
		<path class="st47" d="M309.1,175.3c0.6,0.3,1.1,0.6,1.7,0.9c-1.4,2.6-2.3,5.2-1.8,8.2l0,0c-0.3,0-0.6,0-0.9,0.1
			c-0.7-2,1.3-4.4-1.1-6.1c0-0.4,0-0.7,0-1.1l-0.1,0.1C307.7,176.8,307.8,175.4,309.1,175.3z"/>
		<path class="st68" d="M76,127.1c-0.5,3.2-2.3,5.8-3.9,8.5c-0.4-0.7-0.7-1.5-1.1-2.2C72.7,131.2,74.4,129.1,76,127.1z"/>
		<path class="st69" d="M292.8,217.3c0.3,1-0.2,2.2,0.8,3c0.4,0.4,0.9,0.8,1.3,1.1c-0.7,0.3-1.3,0.6-2,1c-1.7-0.2-1.2-1.9-1.9-2.9
			c-0.4-1.1,0.5-2.6-1.2-3.2C291.7,214.1,291.8,217.2,292.8,217.3z"/>
		<path class="st70" d="M252,228.5c2.2-1.6,4.3-3.5,7.2-4.1c-1.4,2.5-4,3.6-6.3,4.9C252.6,229,252.3,228.7,252,228.5z"/>
		<path class="st17" d="M79,91.4c2.7,0,3.5-3.3,6.9-3.5c-1.9,1.8-3.3,3.2-4.8,4.5C80.3,92.3,79.4,92.4,79,91.4z"/>
		<path class="st29" d="M235.9,76.5c1.9,1.7,3.4,3.7,4.5,6c-2.8-0.7-3.8-3.2-5.3-5.1C235.4,77,235.7,76.8,235.9,76.5z"/>
		<path class="st71" d="M223.5,42.5c-1.5,0.4-2.6-0.4-3.7-1.1c-19.4-11.3-40.4-16.5-62.8-15.9c0-0.3,0-0.6,0-0.9
			C181.2,22.9,203.4,28.7,223.5,42.5z"/>
		<path class="st72" d="M188.9,37.5c-10.9-2.2-21.8-4.1-33-4.1c-13.6-0.1-26.7,1.9-39.1,7.8c-1-2.4,0.7-3,2.4-3.6
			c0.5,1,1.2,0.7,2,0.4c22.7-8.7,45.6-8,68.6-1.4C190.1,37.4,190,37.9,188.9,37.5z"/>
		<path class="st73" d="M128,43.5c-7.1,2.3-14.1,4.8-20.9,7.9c-0.6-0.1-2,0.9-1.4-1c7.2-2.3,13.7-6.6,21.3-7.8
			C127.6,42.8,127.9,43.1,128,43.5z"/>
		<path class="st74" d="M77,83.6c0.3,1,0.7,1.9,1,2.9c-2.7,2.7-4.5,6-5.2,9.8c-1-0.7-0.3-2.3-1.7-2.8c2-3.7,3.9-7.3,5.9-11
			C77,82.9,77,83.2,77,83.6z"/>
		<path class="st75" d="M128,43.5c-0.3-0.3-0.6-0.6-0.9-0.9c16.2-4.3,32.4-4.2,48.8-1c-0.7,0.3-1.4,0.7-2.1,1
			C158.5,40.8,143.2,40.5,128,43.5z"/>
		<path class="st76" d="M161.6,145c4.2,3.1,9.9,4.3,12.6,11C169.3,151.8,163.4,150.8,161.6,145z"/>
		<path class="st77" d="M124.8,59.3c0.4,0.3,0.7,0.7,1.1,1C114,63.4,103,68.4,92.6,75c-1.5,0.9-2.7,2.5-4.7,2.5
			c2-3.5,5.7-4.9,8.9-6.8C105.6,65.5,114.9,61.6,124.8,59.3z"/>
		<path class="st42" d="M113.9,79.3c-7.5,4.4-15,8.8-22.5,13.2c6.4-6.7,14.3-11,22.6-14.5C114.4,78.4,114.3,78.8,113.9,79.3z"/>
		<path class="st27" d="M97.3,96.4c-3.3,3.8-7.4,6.7-11.4,9.6C88.4,101.2,92.5,98.3,97.3,96.4z"/>
		<path class="st78" d="M115.2,84.4c-2.2,2.7-5.4,3.9-8.3,5.5C108.8,86.7,111.8,85.3,115.2,84.4z"/>
		<path class="st60" d="M113.9,79.3c0-0.5,0.1-0.9,0.1-1.4c2.1-1.2,4.3-2.3,6.7-2.7c0.1,0.2,0.3,0.3,0.4,0.5
			C118.7,76.9,116.3,78.1,113.9,79.3z"/>
		<path class="st79" d="M246.9,236.8c11.6-5.5,22.1-12.6,33.3-21.2C274,224,258.3,233.9,246.9,236.8z"/>
		<path class="st80" d="M265.9,219.5c7.7-7.5,15.4-15.1,23.1-22.6c0.5,2-1.1,3-2.1,4.2C280.8,208.3,274.4,215.1,265.9,219.5z"/>
		<path class="st81" d="M277,227.4c-2.9,3.6-6.6,5.9-11.1,7C269.1,231.3,273,229.2,277,227.4z"/>
		<path class="st82" d="M149.2,48.6C136.5,50,124,52.2,112,56.4c-1,0.5-1,0-0.7-0.7c10.9-4.3,22-7.7,33.9-8.1
			C146.3,48.5,148,47.3,149.2,48.6z"/>
		<path class="st83" d="M149.2,48.6c-1.3-0.5-2.9,0.2-4.1-1c6.6-0.5,13.2-0.4,19.8,0c-1,0.3-2,0.6-3,0.9
			C157.6,48.6,153.4,48.6,149.2,48.6z"/>
		<path class="st35" d="M293,178.5c-1.3,7.1-6,12.4-10.1,17.9c-2.4,3.3-5.2,6.4-8.8,8.6C281.5,196.9,287.7,188,293,178.5
			C292.9,178.4,293,178.5,293,178.5z"/>
		<path class="st70" d="M270.9,209.3c-2.3,2.1-4.6,4.3-7,6.4c-0.3-0.3-0.5-0.6-0.8-0.9c2.3-2.2,4.6-4.3,6.9-6.5
			C270.3,208.6,270.6,208.9,270.9,209.3z"/>
		<path class="st84" d="M227,92.5c-2.9-1.2-4.5-3.8-6.5-5.8c-8-7.8-17.4-13.7-27-19.2c1.8-0.4,3.2,0.4,4.7,1.2
			C209.3,74.6,219.7,81.7,227,92.5z"/>
		<path class="st3" d="M225.2,84.8c7.7,6.7,13.1,15,17.5,24.1C237,100.8,231.5,92.5,225.2,84.8z"/>
		<path class="st84" d="M234,101.6c-2.8-2.8-5.5-5.6-7.1-9.2C230.3,94.7,232.9,97.6,234,101.6z"/>
		<path class="st85" d="M215.5,75.8c2.4,0.6,3.8,2.4,5.2,4.2C218.2,79.6,216.9,77.7,215.5,75.8z"/>
		<path class="st27" d="M244.2,251.7c-0.3-0.3-0.7-0.7-1-1c10.3-3,19.9-7.5,29.1-12.9c1.5-0.9,2.8-2.4,4.8-2.4
			c-4.5,5.1-10.7,7.5-16.6,10.4C255.2,248.3,249.8,250.4,244.2,251.7z"/>
		<path class="st86" d="M101,100c-5.2,7.1-12.1,12.6-18.1,19c0.6-4.2,4.2-6.1,6.7-8.8C93.1,106.4,96.6,102.6,101,100z"/>
		<path class="st87" d="M118.8,197.4c3.4,6.7,6.8,13.4,10.1,20c-5.3-5.3-8-12.3-11.1-18.9C118.2,198.2,118.5,197.8,118.8,197.4z"/>
		<path class="st34" d="M134.9,225.4c5.2,5,10.4,10,15.5,15.1C143.6,237.2,138.8,231.8,134.9,225.4z"/>
		<path class="st34" d="M128.9,217.4c2.8,2.1,4.8,4.8,6,8.1C131.8,223.6,130,220.8,128.9,217.4z"/>
		<path class="st0" d="M237,215.4c-1.7,2.8-3.4,0.7-5.1,0C233.5,212.7,235.3,214.7,237,215.4z"/>
		<path class="st57" d="M129.9,209.4c-0.7,2.2,1,3.4,2,4.8c5.9,8.1,12.7,15.4,20.2,22c1.1,0.9,2.7,1.4,2.8,3.2
			c-2.4-0.1-3.7-2-5.2-3.4c-11.6-10-21.2-21.8-28-35.6C126.3,201.8,126.5,207.1,129.9,209.4z"/>
		<path class="st88" d="M84.1,138c0-0.5-0.1-1.1-0.1-1.6c4.4-8,9.3-15.6,16-22C94.7,122.3,89.4,130.1,84.1,138z"/>
		<path class="st89" d="M260.8,120.6c-2.9-10.4-6.1-20.6-11.1-30.3c3.5,2.4,4.2,6.5,5.9,10c2.8,6.1,5.1,12.5,6.3,19.2
			C261.5,119.9,261.1,120.3,260.8,120.6z"/>
		<path class="st42" d="M98.8,197.6c0.4-0.7,0.7-1.4,1.1-2.1c1.4,7.4,3.5,14.5,5.9,21.6c0.4,1.2,2.6,2.7,0.2,4.2
			C102.8,213.7,99.7,206,98.8,197.6z"/>
		<path class="st0" d="M267.8,151.4c-1.3-4.6-1-9.2,0-13.8C267.8,142.2,267.8,146.8,267.8,151.4z"/>
		<path class="st90" d="M105.2,189.3c0.3-0.4,0.6-0.7,1-1.1c2.9,13.1,7.7,25.5,14.3,37.2c-2.2,0.1-2.5-1.9-3.3-3.2
			C111.5,211.9,107.4,201,105.2,189.3z"/>
		<path class="st70" d="M174,92.4c0.3,0.3,0.7,0.7,1,1c0.9,1.4,2.7,0.7,4.4,1.4c-3.6,1.5-6-0.5-8.7-1.3c-6.6-0.1-13.2-0.2-19.9-0.3
			c-0.6-0.3-1.3-0.6-1.9-0.9c5.2-1.5,10.5-1,15.7-0.4C167.7,92.2,170.8,92.4,174,92.4z"/>
		<path class="st91" d="M176.9,80.6c0-0.3,0-0.7,0-1c7.4,1.5,14.1,4.6,20.8,7.9c1.3,0.6,2.9,1.1,2.8,3c-1.5,1.2-2.2-0.5-3.3-1
			C191.3,84.7,183.8,83.4,176.9,80.6z"/>
		<path class="st92" d="M188.1,81.2c0.3-0.3,0.7-0.6,1-0.9c8.4,3.1,15.9,7.7,22.9,13.2c-1.1,2.9-2-0.4-3.1-0.1
			C202.8,88,195.5,84.4,188.1,81.2z"/>
		<path class="st93" d="M213.5,93.6c-1.9-2.8-5-4.2-7.5-6.3c-0.2-0.9-0.1-1.4,0.9-0.9c4.3,2.6,8.2,5.8,12,9c0.1,0.3,0.1,0.6,0,1
			C215.9,98,215.3,94.6,213.5,93.6z"/>
		<path class="st94" d="M175.9,69.4c11.8,1.5,21.9,7,31.5,13.4c2.6,1.7,5,3.8,7.4,5.8c0,0.5,0,0.9,0,1.4
			C203.3,80.6,190,74.2,175.9,69.4z"/>
		<path class="st95" d="M207,86.4c-0.3,0.3-0.6,0.6-0.9,0.9c-4-2.8-8.6-4.6-12.2-7.9C198.8,80.5,203,83.4,207,86.4z"/>
		<path class="st96" d="M216.1,88.4c-4.1-5.5-10.3-8.6-15.5-12.9c0.5-0.5,0.9-0.5,1.4-0.1c10.5,5.8,19.1,13.7,26.9,22.7
			c0.6,0.7,1.5,1.4,1.3,2.6c-0.7-0.4-1.4-0.9-2.2-1.3C223.5,96.3,220.4,91.6,216.1,88.4L216.1,88.4z"/>
		<path class="st97" d="M202,75.4c-0.5,0-0.9,0-1.4,0.1c-3.4-1.7-6.7-3.4-10.1-5.1C194.9,70.7,198.5,73,202,75.4z"/>
		<path class="st0" d="M138.9,215c3.4,3.5,7.5,6.3,10.1,10.5C144.6,222.9,140.9,219.8,138.9,215z"/>
		<path class="st33" d="M69,108.5c-0.7-0.3-1.4-0.7-2-1c1.2-3.4,3.7-6.2,4.3-9.8c0.6,1,1.3,1.9,1.9,2.9
			C71.7,103.2,70.3,105.8,69,108.5z"/>
		<path class="st98" d="M309.1,175.3c-0.5,1-1.1,1.8-2.3,2.1c0.1-1,0.2-2,0.2-2.9c2.2-1.8-1.1-6,2.9-7.1
			C308.7,169.9,309.2,172.7,309.1,175.3z"/>
		<path class="st0" d="M291.1,219.5c0.6,1,1.2,1.9,1.9,2.9c-2.8,2.9-3.9,6.8-6,10.1c-0.6-1.3,1.1-3.1-1-4
			C287.5,225.4,290.4,223.1,291.1,219.5z"/>
	</g>
</g>
</svg>
