<?xml version="1.0" encoding="utf-8"?>
<!-- Generator: Adobe Illustrator 20.0.0, SVG Export Plug-In . SVG Version: 6.00 Build 0)  -->
<svg version="1.1" xmlns="http://www.w3.org/2000/svg" xmlns:xlink="http://www.w3.org/1999/xlink" x="0px" y="0px"
	 viewBox="0 0 793.7 141.7" style="enable-background:new 0 0 793.7 141.7;" xml:space="preserve">
<style type="text/css">
	.st0{display:none;}
	.st1{display:inline;}
	.st2{fill:#B3B2B3;}
	.st3{fill:#CC302F;}
	.st4{fill:#231F20;} 
	.st5{fill:#FFFFFF;}
</style>
<g id="Layer_1" class="st0">
	<g class="st1">
		<g>
			<path class="st2" d="M-91.9,35.7c0-3.2-2.8-6-6-6h-4.4V17.2h4.4c10.2,0,18.5,8.2,18.5,18.5v24.9c1.8,1.1,4.9,3.1,7.2,4.4v14.7
				l-7.2,3.8v25.1c0,10.4-8.3,18.6-18.5,18.6h-4.4v-12.7h4.4c3.2,0,6-2.8,6-6V82.5l12.8-10.2l-12.8-10.5"/>
			<path class="st2" d="M-184.5,35.7c0-3.2,2.7-6,6-6h4.4V17.2h-4.4c-10.2,0-18.5,8.2-18.5,18.5v24.9c-1.8,1.1-4.9,3.1-7.2,4.4v14.7
				l7.2,3.8v25.1c0,10.4,8.3,18.6,18.5,18.6h4.4v-12.7h-4.4c-3.2,0-6-2.8-6-6V82.5l-12.8-10.2l12.8-10.5"/>
		</g>
		<g>
			<path class="st3" d="M-151.2,101.2h25.9c0.5,0,1,0,1.5-0.1V89.5c-0.5,0.2-1,0.3-1.5,0.3h-25.4l-5.8,10.6
				C-154.8,100.9-153,101.2-151.2,101.2"/>
			<path class="st4" d="M-155.8,68.1v-8.9c0-2.5,2-4.6,4.6-4.6h19.7l6.3-11.4c0,0,0,0,0,0h-25.9c-8.8,0-16,7.2-16,16v25.9
				c0,7,4.5,13,10.8,15.1l5.8-10.6h-0.5c-2.5,0-4.6-2-4.6-4.6v-6.4h11.1l5.8-10.7H-155.8z"/>
			<path class="st3" d="M-125.2,43.2l-6.3,11.4h6.2c2.5,0,4.6,2.1,4.6,4.6v8.9h-18.2l-5.8,10.7h35.4v-3.4v-7.3v-8.9
				C-109.2,50.4-116.4,43.2-125.2,43.2"/>
		</g>
	</g>
</g>
<g id="Livello_3" class="st0">
	<rect class="st1" width="793.7" height="141.7"/>
</g>
<g id="Layer_2">
	<g>
		<path class="st5" d="M751.4,36.1c0-3.1-2.6-5.7-5.7-5.7h-4.2V18.4h4.2c9.8,0,17.7,7.9,17.7,17.6v23.7c1.8,1,4.7,2.9,6.9,4.2v14
			l-6.9,3.6v23.9c0,9.9-7.9,17.8-17.7,17.8h-4.2v-12.1h4.2c3.1,0,5.7-2.6,5.7-5.7V80.6l12.3-9.8l-12.3-10.1V36.1z"/>
		<path class="st5" d="M42.3,105.7c0,3.1,2.6,5.7,5.7,5.7h4.2v11.9h-4.2c-9.8,0-17.7-7.9-17.7-17.6V81.9c-1.8-1-4.7-2.9-6.9-4.2v-14
			l6.9-3.6V36.2c0-9.9,7.9-17.8,17.7-17.8h4.2v12.1h-4.2c-3.1,0-5.7,2.6-5.7,5.7v24.9L30,70.9l12.3,10.1V105.7z"/>
		<path class="st5" d="M176.5,39.5h-27.8c-9.5,0-17.2,7.7-17.2,17.1v27.6c0,9.4,7.7,17.1,17.2,17.1h27.8c9.5,0,17.2-7.6,17.2-17.1
			V56.6C193.6,47.1,185.9,39.5,176.5,39.5 M176.9,84.2c0,0.3-0.2,0.5-0.4,0.5h-27.8c-0.2,0-0.4-0.2-0.4-0.5V56.6
			c0-0.2,0.2-0.4,0.4-0.4h27.8c0.2,0,0.4,0.2,0.4,0.4V84.2z"/>
		<path class="st5" d="M106.6,84.7c0,0.2-0.2,0.4-0.4,0.4H78.3c-0.2,0-0.4-0.2-0.4-0.4V57c0-0.2,0.2-0.4,0.4-0.4h27.8
			c0.2,0,0.4,0.2,0.4,0.4v6h16.7v-6c0-9.4-7.7-17.1-17.2-17.1H78.3c-9.5,0-17.2,7.6-17.2,17.1v27.7c0,9.4,7.7,17.1,17.2,17.1h27.8
			c9.5,0,17.2-7.6,17.2-17.1v-4.1h-16.7V84.7z"/>
		<path class="st5" d="M267,59.2L267,59.2V57c0-9.4-7.7-17.1-17.2-17.1H222c-0.1,0-0.3,0-0.4,0v0h-16.7v16.8c0,0.1,0,0.2,0,0.3v27.7
			c0,0.1,0,0.2,0,0.3v16.8h16.7v0c0.2,0,0.3,0,0.4,0h27.8c9.5,0,17.2-7.6,17.2-17.1v-1.5V59.2z M250.2,84.7c0,0.2-0.2,0.4-0.4,0.4
			H222c-0.2,0-0.4-0.2-0.4-0.4V57c0-0.2,0.2-0.4,0.4-0.4h27.8c0.2,0,0.4,0.2,0.4,0.4v2.1h0v24h0V84.7z"/>
		<path class="st5" d="M423.9,40h-1.3h-14.1h-1.3c-4.2,0-8,1.5-11,4c-3-2.5-6.8-4-11-4H384h-14.1h-1.3c-9.5,0-17.2,7.6-17.2,17.1
			v44.6h12.3V57.1c0-2.7,2.2-4.9,4.9-4.9h1.3H384h1.3c2.6,0,4.8,2.1,4.9,4.7c0,0.1,0,0.1,0,0.2v39.2h0h12.2h0V57.1
			c0-0.1,0-0.1,0-0.2c0.1-2.6,2.2-4.7,4.9-4.7h1.3h14.1h1.3c2.7,0,4.9,2.2,4.9,4.9v44.6h12.3V57.1C441.1,47.7,433.4,40,423.9,40"/>
		<path class="st5" d="M710.4,39.7h-7.6H695h-7.7c-9.5,0-17.2,7.6-17.2,17.1v44.7h12.3V56.8c0-2.7,2.2-4.9,4.9-4.9h7.7h7.7h7.6
			c2.7,0,4.9,2.2,4.9,4.9v44.6h12.3V56.8C727.5,47.4,719.9,39.7,710.4,39.7"/>
		<path class="st5" d="M495.5,39.7h-27.8c-9.5,0-17.2,7.6-17.2,17.1v27.7c0,9.4,7.7,17.1,17.2,17.1h27.8c9.5,0,17.2-7.7,17.2-17.1
			v-0.2V74.1V56.8C512.7,47.3,505,39.7,495.5,39.7 M500.4,84.2v0.2c0,2.7-2.2,4.9-4.9,4.9h-27.8c-2.7,0-4.9-2.2-4.9-4.9V56.8
			c0-2.7,2.2-4.9,4.9-4.9h27.8c2.7,0,4.9,2.2,4.9,4.9v17.3V84.2z"/>
		<path class="st5" d="M643.5,39.7h-27.8c-9.5,0-17.2,7.6-17.2,17.1v27.7c0,9.4,7.7,17.1,17.2,17.1h27.8c9.5,0,17.2-7.7,17.2-17.1
			v-0.2V74.1V56.8C660.7,47.3,653,39.7,643.5,39.7 M648.4,84.2v0.2c0,2.7-2.2,4.9-4.9,4.9h-27.8c-2.7,0-4.9-2.2-4.9-4.9V56.8
			c0-2.7,2.2-4.9,4.9-4.9h27.8c2.7,0,4.9,2.2,4.9,4.9v17.3V84.2z"/>
		<path class="st5" d="M538.9,89.6c-2.7,0-4.9-2.2-4.9-4.9V65.6h20V52.2h-20V33.7c0,0,0,0,0-0.1h-12.3c0,0,0,0.1,0,0.1v51.1
			c0,9.4,7.7,17.1,17.2,17.1h27.6V89.6H538.9z"/>
		<rect x="576" y="42.8" class="st5" width="12.6" height="59.1"/>
		<g>
			<path class="st5" d="M296.3,101.6h27.8c0.6,0,1.1,0,1.7-0.1V89.1c-0.5,0.2-1.1,0.3-1.7,0.3h-22l-6.7,12.1
				C295.7,101.5,296,101.6,296.3,101.6z"/>
			<path class="st5" d="M291.4,84.5v-6.8h9.8l6.3-11.4h-16.1v-9.5c0-2.7,2.2-4.9,4.9-4.9h19.1l6.7-12.2h-25.9
				c-9.5,0-17.2,7.6-17.2,17.1v27.7c0,6.8,4.1,12.7,9.9,15.4l5.9-10.7C292.9,88.5,291.4,86.7,291.4,84.5z"/>
			<path class="st5" d="M329.1,40.5l-6.3,11.4h1.4c2.7,0,4.9,2.2,4.9,4.9v9.5h-14.2l-6.3,11.4h32.7v-3.6v-7.8v-9.5
				C341.3,49.1,336.1,42.6,329.1,40.5z"/>
		</g>
	</g>
</g>
</svg>
